/* XPM */
static char *a2d83fb6dd6d4376a61fe94e61603657fauy2I2pBVvz595h[] = {
/* columns rows colors chars-per-pixel */
"67 67 223 2 ",
"   c #7D2602",
".  c #7F2C04",
"X  c #823105",
"o  c #8C3404",
"O  c #88350A",
"+  c #8E390A",
"@  c #963803",
"#  c #9A3C05",
"$  c #893B15",
"%  c #AD3D04",
"&  c #9D4308",
"*  c #984614",
"=  c #A44406",
"-  c #A74907",
";  c #AB4A05",
":  c #BD4305",
">  c #B64806",
",  c #BB5605",
"<  c #A55216",
"1  c #BC6117",
"2  c #96512F",
"3  c #9B542B",
"4  c #B05F28",
"5  c #BB6929",
"6  c #AE6C3D",
"7  c #BE733C",
"8  c #DF4F01",
"9  c #C95608",
"0  c #DE5304",
"q  c #D45806",
"w  c #E14F01",
"e  c #E35301",
"r  c #E65703",
"t  c #EB5C01",
"y  c #C86208",
"u  c #D46B05",
"i  c #D76B06",
"p  c #D97808",
"a  c #C76917",
"s  c #DB7615",
"d  c #EE6303",
"f  c #E86B06",
"g  c #F26402",
"h  c #F56B03",
"j  c #FB6E05",
"k  c #F66C08",
"l  c #EC7C05",
"z  c #E27308",
"x  c #EB7D0B",
"c  c #F57306",
"v  c #FD7305",
"b  c #F47D05",
"n  c #FC7C04",
"m  c #F3750A",
"M  c #F47E0A",
"N  c #FB780A",
"B  c #E97816",
"V  c #C97227",
"C  c #C7752C",
"Z  c #9F6446",
"A  c #AB6F4D",
"S  c #A87459",
"D  c #D5890C",
"F  c #DC920A",
"G  c #DC9014",
"H  c #E88708",
"J  c #F58406",
"K  c #FC8304",
"L  c #F38C05",
"P  c #FD8C05",
"I  c #F3830A",
"U  c #FB8409",
"Y  c #F7890D",
"T  c #FA8C0B",
"R  c #E99805",
"E  c #EE920D",
"W  c #FD9304",
"Q  c #FD9B02",
"!  c #F59708",
"~  c #FA930A",
"^  c #FB9B0A",
"/  c #F98A15",
"(  c #EF9913",
")  c #F79615",
"_  c #F89A16",
"`  c #E4A609",
"'  c #F6A206",
"]  c #FCA402",
"[  c #FCAB02",
"{  c #F5A10C",
"}  c #FBA30C",
"|  c #F4AD09",
" . c #F9AD0C",
".. c #EEB708",
"X. c #FDB402",
"o. c #F3B906",
"O. c #FEBC03",
"+. c #F9B40C",
"@. c #FABC0B",
"#. c #E9A717",
"$. c #F9A414",
"%. c #F6A815",
"&. c #F9A912",
"*. c #F6B413",
"=. c #F9B616",
"-. c #FABC1C",
";. c #DC8023",
":. c #D7853A",
">. c #E98822",
",. c #F5972A",
"<. c #ED9735",
"1. c #F79B37",
"2. c #F7AA25",
"3. c #F9B823",
"4. c #F5A736",
"5. c #FAB432",
"6. c #F8B639",
"7. c #F3C607",
"8. c #FDC306",
"9. c #FCCA04",
"0. c #FDC40A",
"q. c #FDCA0D",
"w. c #F6D706",
"e. c #FDD402",
"r. c #FDDB02",
"t. c #FBD50A",
"y. c #FBDB0A",
"u. c #FDCD11",
"i. c #F9C51B",
"p. c #FACF1B",
"a. c #FDD215",
"s. c #FBDB13",
"d. c #FDD41A",
"f. c #FCDB1D",
"g. c #FDE301",
"h. c #FEEC01",
"j. c #FEF001",
"k. c #FCE01A",
"l. c #F8C320",
"z. c #F7C828",
"x. c #FCD521",
"c. c #FDDB22",
"v. c #F6D42A",
"b. c #F9D72C",
"n. c #FBDD2A",
"m. c #F5C636",
"M. c #F7D335",
"N. c #FADD31",
"B. c #FDE125",
"V. c #FDE32C",
"C. c #FBE92B",
"Z. c #FDE532",
"A. c #FDEB34",
"S. c #FAE13C",
"D. c #FCED3A",
"F. c #FCF13C",
"G. c #B78569",
"H. c #C48959",
"J. c #D99757",
"K. c #E59744",
"L. c #F4A449",
"P. c #EEB64A",
"I. c #F5BD42",
"U. c #E9A55F",
"Y. c #F5AB58",
"T. c #C08D69",
"R. c #E5AD73",
"E. c #F6BB79",
"W. c #F8C445",
"Q. c #F6CE4B",
"!. c #F8D548",
"~. c #F9C254",
"^. c #F6D459",
"/. c #F9DC5A",
"(. c #FBE746",
"). c #FBED4C",
"_. c #FAF347",
"`. c #FAE45B",
"'. c #FBEA5A",
"]. c #FCF25D",
"[. c #F9E267",
"{. c #FCF365",
"}. c #FBF668",
"|. c #FAE974",
" X c #FCF77A",
".X c #BE9884",
"XX c #C59F89",
"oX c #CAA589",
"OX c #C7A894",
"+X c #D3B297",
"@X c #E5BA8B",
"#X c #F1BD84",
"$X c #D3B9A9",
"%X c #F5CD8F",
"&X c #F3C99E",
"*X c #FBF688",
"=X c #F9F09D",
"-X c #D9C5B9",
";X c #F4D2AA",
":X c #F6D6AB",
">X c #E2CDBD",
",X c #ECD3B5",
"<X c #F4D6B2",
"1X c #F3DABB",
"2X c #FCF3B3",
"3X c #E0D2C7",
"4X c #F3DDC6",
"5X c #E6DDD5",
"6X c #EADDD4",
"7X c #F4E2CA",
"8X c #F3E5D7",
"9X c #F4E9DB",
"0X c #EEE9E7",
"qX c #EDEAE6",
"wX c #F3ECE4",
"eX c #F3EEE9",
"rX c #F5F2EC",
"tX c #F9F8EA",
"yX c #F4F5F3",
"uX c #F2F5F6",
"iX c #F5F5F4",
"pX c gray96",
"aX c #FCFCF6",
/* pixels */
"pXpXpXpXpXpXpXpXpXpXpXpXpXpXpXpXpXpXpXpXpXpXpXpXpXpXpXpXpXpXpXpXpXpXpXpXpXpXpXpXpXpXpXpXpXpXpXpXpXpXpXpXpXpXpXpXpXpXpXpXpXpXpXpXpXpXpX",
"pXpXpXpXpXpXpXpXpXpXpXpXpXpXpXpXpXpXpXpXpXpXpXpXpXpXpXpXpXpXpXpXpXpXpXpXpXpXpXpXpXpXpXpXpXpXpXpXpXpXpXpXpXpXpXpXpXpXpXpXpXpXpXpXpXpXpX",
"pXpXpXpXpXpXpXpXpXpXpXpXpXpXpXpXpXpXpXpXpXpXpXpXpXpXpXpXpXpXpXpXpXpXpXpXpXpXpXpXpXpXpXpXpXpXpXpXpXpXpXpXpXpXpXpXpXpXpXpXpXpXpXpXpXpXpX",
"pXpXpXpXpXpXpXpXpXpXpXpXpXpXpXpXpXpXpXpXpXpXpXpXpXpXpXpXpXpXpXpXpXpXpXpXpXpXpXpXpXpXpXpXpXpXpXpXpXpXpXpXpXpXpXpXpXpXpXpXpXpXpXpXpXpXpX",
"pXpXpXpXpXpXpXpXpXpXpXpXpXpXpXpXpXpXpXpXpXpXpXpXpXpXpXpXpXpXpXpXpXpXpXpXpXpXpXpXpXpXpXpXpXpXpXpXpXpXpXpXpXpXpXpXpXpXpXpXpXpXpXpXpXpXpX",
"pXpXpXpXpXpXpXpXpXpXpXpXpXpXpXpXpXpXpXpXpXpXpXpXpXpXpXpXpXpXpXpXpXpXpXpXpXpXpXpXpXpXpXpXpXpXpXpXpXpXpXpXpXpXpXpXpXpXpXpXpXpXpXpXpXpXpX",
"pXpXpXpXpXpXpXpXpXpXpXpXpXpXpXpXpXpXpXpXpXpXpXpXpXpXpXpXpXpXpXpXpXpXpXpXpXpXpXpXpXpXpXpXpXpXpXpXpXpXpXpXpXpXpXpXpXpXpXpXpXpXpXpXpXpXpX",
"pXpXpXpXpXpXpXpXpXpXpXpXpXpXpXpXpXpXpXpXpXpXpXpXpXpXpXpXpXpXpXpXpXpXpXpXpXpXpXpXpXpXpXpXpXpXpXpXpXpXpXpXpXpXpXpXpXpXpXpXpXpXpXpXpXpXpX",
"pXpXpXpXpXpXpXpXpXpXpXpXpXpXpXpXpXpXpXpXpXpXpXpXpXpXyXpXpXpXrX9X7X7X7X9XrXuXpXpXyXpXpXpXpXpXpXpXpXpXpXpXpXpXpXpXpXpXpXpXpXpXpXpXpXpXpX",
"pXpXpXpXpXpXpXpXpXpXpXpXpXpXpXpXpXpXpXpXpXpXpXuXpXpX9X:XE.1.Y K K K K K Y 1.E.<XwXpXuXpXpXpXpXpXpXpXpXpXpXpXpXpXpXpXpXpXpXpXpXpXpXpXpX",
"pXpXpXpXpXpXpXpXpXpXpXpXpXpXpXpXpXpXpXpXpXpXpXrX<XL.Y P Q o.9.r.g.g.g.r.9.X.^ P Y Y.1XyXyXuXpXpXpXpXpXpXpXpXpXpXpXpXpXpXpXpXpXpXpXpXpX",
"pXpXpXpXpXpXpXpXpXpXpXpXpXpXpXpXpXyXpXyXpXyX;X,.U ' e.h.h.j.j.j.h.h.h.j.h.j.h.h.9.Q K 1.1XuXpXpXpXpXpXpXpXpXpXpXpXpXpXpXpXpXpXpXpXpXpX",
"pXpXpXpXpXpXpXpXpXpXpXpXpXpXpXpXpXyXyXuX9XL.J [ r.h.j.h.j.j.j.j.j.j.j.j.h.h.h.h.h.h.r.' J Y.eXyXpXpXpXpXpXpXpXpXpXpXpXpXpXpXpXpXpXpXpX",
"pXpXpXpXpXpXpXpXpXpXpXpXpXpXpXpXpXpXyX;X/ ! e.h.h.h.h.h.h.h.j.j.h.h.h.h.h.h.h.h.h.h.h.h.q.L ,.4XpXpXpXpXpXpXpXpXpXpXpXpXpXpXpXpXpXpXpX",
"pXpXpXpXpXpXpXpXpXpXpXpXpXpXpXpXuXyX#XI | h.h.h.h.h.h.h.h.h.g.r.e.e.w.y.h.h.h.h.h.h.h.h.h.g.' I &XpXpXpXpXpXpXpXpXpXpXpXpXpXpXpXpXpXpX",
"pXpXpXpXpXpXpXpXpXpXpXpXpXpXpXpXyX#XM o.h.h.h.h.h.h.h.r.O.' W P P P P W W ' 8.g.h.h.h.h.h.h.h.| I &XyXuXpXpXpXpXpXpXpXpXpXpXpXpXpXpXpX",
"pXpXpXpXpXpXpXpXpXpXpXpXpXpXuXpX%Xl o.h.h.h.h.h.h.e.[ W W $.5.~.%X<X%XW.5.$.W W X.r.h.h.h.h.h.h.| l ;XpXpXpXpXpXpXpXpXpXpXpXpXpXpXpXpX",
"pXpXpXpXpXpXpXpXpXpXpXpXpXpXpX<Xx ..h.h.h.h.h.g.o.W ^ 6.|. X{.*XaXaXtX*X}. X[.5.^ Q O.h.h.h.h.h.h.' x 7XyXpXpXpXpXpXpXpXpXpXpXpXpXpXpX",
"pXpXpXpXpXpXpXpXpXpXpXpXpXpX9X>.R h.h.h.h.h.r.' Q 5.|.].F.D.F.D.).'.).D.A.A._.].|.2.^ [ g.h.h.h.h.h.L <.rXpXpXpXpXpXpXpXpXpXpXpXpXpXpX",
"pXpXpXpXpXpXpXpXpXpXpXpXpXpXU.H g.h.h.h.h.t.] ^ ^.].D.A.A.A.A.Z.E E E b.A.A.A.D.D.{.Q.Q ] r.h.h.h.h.r.l E.pXpXpXpXpXpXpXpXpXpXpXpXpXpX",
"pXpXpXpXpXpXpXpXpXpXpXpXyX1Xz o.h.h.h.h.g.' } [.(.A.A.A.A.A.A.Z.L Q ^ b.A.A.A.A.A.A.).^.' [ g.h.h.h.h.| B 8XpXyXpXpXpXpXpXpXpXpXpXpXpX",
"pXpXpXpXpXpXpXpXpXpXpXpXpXK.H g.g.h.h.g.X.' /.D.C.Z.Z.Z.Z.Z.Z.N.L Q Q l.v.Z.A.Z.Z.Z.V.(.Q.] o.g.h.h.h.g.H U.uXpXpXpXpXpXpXpXpXpXpXpXpX",
"pXpXpXpXpXpXpXpXpXpXpXpX4Xz o.h.h.h.h.8.] Q.D.V.V.V.V.V.V.z.( I P W W P J J E n.V.V.V.V.(.m.' e.h.h.h.g...s wXyXpXpXpXpXpXpXpXpXpXpXpX",
"pXpXpXpXpXpXpXpXpXpXpXyXU.p g.g.g.g.g.[ -.(.B.B.n.V.B.n.#.b W W W W W W W W W n.B.n.n.V.n.(.*.X.g.h.g.g.r.u @XpXpXpXpXpXpXpXpXpXpXpXpX",
"pXpXpXpXpXpXpXpXpXpXpXrX;.` g.g.h.h.8.[ !.c.c.c.c.c.c.#.K W W W W W W W W W W c.c.c.c.c.c.n.!.[ e.g.g.g.h.R :.pXpXpXpXpXpXpXpXpXpXpXpX",
"pXpXpXpXpXpXpXpXpXyXpX7Xu 7.g.g.g.g.X.-.N.x.f.c.c.f.d.I P P P P P ~ ^ ~ P P P x.f.f.c.c.f.c.N.+.O.g.g.g.g...s wXpXpXpXpXpXpXpXpXpXpXpX",
"pXpXpXpXpXpXpXpXpXpXpX@Xu r.g.g.g.r.X.M.d.d.d.d.d.d.-.J P P P P $.c.c.x.x.=.~ x.d.d.d.d.d.d.d.z.X.r.g.g.g.w.u ,XpXpXpXpXpXpXpXpXpXpXpX",
"pXpXpXpXpXpXpXpXpXpXpXJ.p g.g.g.g.9.O.v.a.a.a.a.a.a.*.K P P P P %.a.a.a.a.a.p.d.a.a.a.a.a.a.a.v.X.w.g.g.g.r.u R.pXpXpXpXpXpXpXpXpXpXpX",
"pXpXpXpXpXpXpXpXpXpXyX:.F g.g.g.g.8.@.d.q.u.u.u.u.q.*.K P P K P U { u.q.u.u.u.u.u.u.u.u.u.u.u.p.O.9.g.g.g.g.p J.uXyXpXpXpXpXpXpXpXpXpX",
"pXpXpXpXpXpXpXpXpXpXrXV ` g.g.g.g.8.0.u.q.q.q.q.q.q.0.J K K K K U K M ! @.u.q.q.q.q.q.q.q.q.q.u.8.9.g.g.g.g.D :.pXpXpXpXpXpXpXpXpXpXpX",
"pXpXpXpXpXpXpXpXpXyXeXa ` g.g.g.g.8.0.0.0.0.0.0.0.0.0.! K K K K K K K U b { 0.0.0.0.0.0.0.0.0.0.8.9.g.g.g.g.F C yXpXpXpXpXpXpXpXpXpXpX",
"pXpXpXpXpXpXpXpXpXpXeXa ` g.g.g.r.8.0.8.8.8.8.8.8.8.8.8.~ J U U U U K K K J L 8.8.8.8.8.8.8.8.8.0.9.g.g.g.g.F C yXpXpXpXpXpXpXpXpXpXpX",
"pXpXpXpXpXpXpXpXpXpXeXa ` r.g.g.r.9.0.O.O.O.O.O.O.O.O.O.8.&.U n K n n n n n n ' O.O.O.O.O.O.O.O.0.9.g.g.g.g.D C yXpXpXpXpXpXpXpXpXpXpX",
"pXpXpXpXpXpXpXpXpXpXeXa G g.r.r.r.q.q.O.O.O.O.O.O.O.O.O.O.O.0.&.U n n n n n n U O.O.O.O.O.O.O.O.q.t.r.r.r.r.D C yXpXpXpXpXpXpXpXpXpXpX",
"pXpXpXpXpXpXpXpXpXpXeX1 G y.g.g.r.t.u.O.O.X.X.X.X.X.X.o.X.O.O.O.@._ n n n n n J @.X.X.X.X.O.O.O.a.y.r.r.r.y.p C yXpXpXpXpXpXpXpXpXpXpX",
"pXpXpXpXpXpXpXpXpXpXeX1 p s.r.r.r.y.d.@.X.X.X.X.X.X.[ m ' X.X.X.X.[ v n n n n n @.X.X.X.X.X.X.0.a.r.r.r.r.a.u C yXpXpXpXpXpXpXpXpXpXpX",
"pXpXpXpXpXpXpXpXpXpXeX1 u p.r.r.r.r.d.u.X.X.[ X.X.[ [ c c m L ! ! l v v N v v Y @.X.[ X.[ X.X.d.a.r.r.r.r.i.u 5 yXpXpXpXpXpXpXpXpXpXpX",
"pXpXpXpXpXpXpXpXpXpXrX5 u 3.r.r.r.r.s.c.+.[ [ [ [ [ ] k v v k h g k v v v v v $.[ [ [ [ [ [ @.c.y.r.r.r.y.3.y 7 pXpXpXpXpXpXpXpXpXpXpX",
"pXpXpXpXpXpXpXpXpXpXyX7 y _ f.r.r.r.y.c.p.] ] ] ] ] ] k v v v v v v v v v v / [.] [ ] ] [ [ x.f.y.r.r.r.c.T , H.pXpXpXpXpXpXpXpXpXpXpX",
"pXpXpXpXpXpXpXpXpXpXpXH., K z.r.r.r.r.s.B.@.] ] ] ] Q k j j v j j j j j v ) -.} ] ] ] ] ] i.B.s.r.r.r.r.z.J ; oXpXpXpXpXpXpXpXpXpXpXpX",
"pXpXpXpXpXpXpXpXpXyXuX+X; J 2.f.r.r.r.y.B.V. .Q Q Q Q %._ Y N N j j k ) 3. .Q Q Q Q Q Q +.V.k.r.r.r.r.B._ l ; >XpXpXpXpXpXpXpXpXpXpXpX",
"pXpXpXpXpXpXpXpXpXpXpX6X- z K M.e.r.e.e.y.V.n.} Q Q Q Q Q ]  .$.k j j { Q Q Q Q Q Q Q  .V.B.y.r.r.r.t.m.K u < wXpXpXpXpXpXpXpXpXpXpXpX",
"pXpXpXpXpXpXpXpXpXpXpXyX4 y K ) Z.e.r.e.e.s.A.V. .Q Q Q Q Q Q W g j j ^ Q Q Q Q Q Q =.Z.V.y.e.e.e.e.S.~ P , 6 pXpXpXpXpXpXpXpXpXpXpXpX",
"pXpXpXpXpXpXpXpXpXpXpXyXT.= J K 5.f.e.e.e.e.y.A.A.i.W W W W W W M / / { W W W W Q x.A.C.y.e.e.e.e.V.2.K l & oXpXpXpXpXpXpXpXpXpXpXpXpX",
"pXpXpXpXpXpXpXpXpXpXpXpX6X& u K K W.s.e.e.e.e.y.C.A.Z.-.Q W W W ^ } $.Q W W } l.A.A.B.t.e.e.e.e.c.6.K K y < eXpXpXpXpXpXpXpXpXpXpXpXpX",
"pXpXpXpXpXpXpXpXpXpXpXpXpXA ; K K J Q.s.e.e.e.e.e.k.A.F.D.b.-.*.&.&.&.=.l.N.F.D.C.s.e.e.e.e.e.c.W.J K b & G.yXpXpXpXpXpXpXpXpXpXpXpXpX",
"pXpXpXpXpXpXpXpXpXpXpXuXpX3X& y K K J Q.c.e.e.e.e.e.e.s.C.A.F.F._.{._.F.F.A.C.s.e.e.e.e.e.e.n.W.n K K , * qXpXpXpXpXpXpXpXpXpXpXpXpXpX",
"pXpXpXpXpXpXpXpXpXpXpXpXyXpXG.# l K n n I.S.t.e.e.e.e.e.e.t.t.f.2XtX=Xs.t.e.e.e.e.e.e.e.t.(.6.n K K z # XXpXpXpXpXpXpXpXpXpXpXpXpXpXpX",
"pXpXpXpXpXpXpXpXpXpXpXpXpXpXqX3 - J n n n ,.`.c.e.e.e.e.e.e.e.e.t.a.t.e.e.e.e.e.e.e.e.n./.) n n n M = 6 yXpXpXpXpXpXpXpXpXpXpXpXpXpXpX",
"pXpXpXpXpXpXpXpXpXpXpXpXpXpXuX>X+ > n n n v N 4.'.n.e.e.e.e.e.e.e.e.e.e.e.e.e.e.e.N.`.4.v v n n n ; * 5XyXpXpXpXpXpXpXpXpXpXpXpXpXpXpX",
"pXpXpXpXpXpXpXpXpXpXpXpXpXpXpXuX+Xo , n n v v j m 4./.).N.s.e.e.e.e.e.e.e.s.Z.'.^.,.c v v v n b ; + -XpXyXpXpXpXpXpXpXpXpXpXpXpXpXpXpX",
"pXpXpXpXpXpXpXpXpXpXpXpXpXpXpXuXpXOXo > v v v j h g d B <.P.^.`.`.'.`./.^.P.<.B d g h j v v c - + $XpXuXpXpXpXpXpXpXpXpXpXpXpXpXpXpXpX",
"pXpXpXpXpXpXpXpXpXpXpXpXpXpXpXpXyXyXOX+ = f v j h g g t t r e e 0 0 0 0 e r t t g g h j v f # $ $XuXyXpXpXpXpXpXpXpXpXpXpXpXpXpXpXpXpX",
"pXpXpXpXpXpXpXpXpXpXpXpXpXpXpXpXpXpXpX-X2 o 9 h h g g t t r e e w 8 0 e e r t t g g h h 9 o 2 3XyXyXpXpXpXpXpXpXpXpXpXpXpXpXpXpXpXpXpX",
"pXpXpXpXpXpXpXpXpXpXpXpXpXpXpXpXpXpXpXyXqXS O # q d g t t r e e e 8 e e e r t t d d 9 @ O G.yXuXpXpXpXpXpXpXpXpXpXpXpXpXpXpXpXpXpXpXpX",
"pXpXpXpXpXpXpXpXpXpXpXpXpXpXpXpXpXpXpXpXpXyX-X2 X o > q r r e e w 8 8 e e r r q > o X Z 3XpXpXpXpXpXpXpXpXpXpXpXpXpXpXpXpXpXpXpXpXpXpX",
"pXpXpXpXpXpXpXpXpXpXpXpXpXpXpXpXpXpXpXpXpXpXpXyX-XS $ X o # % : : : : : % @ o X $ G.3XyXpXpXpXpXpXpXpXpXpXpXpXpXpXpXpXpXpXpXpXpXpXpXpX",
"pXpXpXpXpXpXpXpXpXpXpXpXpXpXpXpXpXpXpXpXpXpXpXpXpXpXqX-X.XZ $ .       . $ A XX-XqXpXpXpXpXpXpXpXpXpXpXpXpXpXpXpXpXpXpXpXpXpXpXpXpXpXpX",
"pXpXpXpXpXpXpXpXpXpXpXpXpXpXpXpXpXpXpXpXpXpXpXpXpXuXpXpXpXpXyXqX5X5X5XqXyXpXpXpXpXpXpXpXpXpXpXpXpXpXpXpXpXpXpXpXpXpXpXpXpXpXpXpXpXpXpX",
"pXpXpXpXpXpXpXpXpXpXpXpXpXpXpXpXpXpXpXpXpXpXpXpXpXpXpXpXpXpXpXpXpXpXpXpXpXpXpXpXpXpXpXpXpXpXpXpXpXpXpXpXpXpXpXpXpXpXpXpXpXpXpXpXpXpXpX",
"pXpXpXpXpXpXpXpXpXpXpXpXpXpXpXpXpXpXpXpXpXpXpXpXpXpXpXpXpXpXpXpXpXpXpXpXpXpXpXpXpXpXpXpXpXpXpXpXpXpXpXpXpXpXpXpXpXpXpXpXpXpXpXpXpXpXpX",
"pXpXpXpXpXpXpXpXpXpXpXpXpXpXpXpXpXpXpXpXpXpXpXpXpXpXpXpXpXpXpXpXpXpXpXpXpXpXpXpXpXpXpXpXpXpXpXpXpXpXpXpXpXpXpXpXpXpXpXpXpXpXpXpXpXpXpX",
"pXpXpXpXpXpXpXpXpXpXpXpXpXpXpXpXpXpXpXpXpXpXpXpXpXpXpXpXpXpXpXpXpXpXpXpXpXpXpXpXpXpXpXpXpXpXpXpXpXpXpXpXpXpXpXpXpXpXpXpXpXpXpXpXpXpXpX",
"pXpXpXpXpXpXpXpXpXpXpXpXpXpXpXpXpXpXpXpXpXpXpXpXpXpXpXpXpXpXpXpXpXpXpXpXpXpXpXpXpXpXpXpXpXpXpXpXpXpXpXpXpXpXpXpXpXpXpXpXpXpXpXpXpXpXpX",
"pXpXpXpXpXpXpXpXpXpXpXpXpXpXpXpXpXpXpXpXpXpXpXpXpXpXpXpXpXpXpXpXpXpXpXpXpXpXpXpXpXpXpXpXpXpXpXpXpXpXpXpXpXpXpXpXpXpXpXpXpXpXpXpXpXpXpX",
"pXpXpXpXpXpXpXpXpXpXpXpXpXpXpXpXpXpXpXpXpXpXpXpXpXpXpXpXpXpXpXpXpXpXpXpXpXpXpXpXpXpXpXpXpXpXpXpXpXpXpXpXpXpXpXpXpXpXpXpXpXpXpXpXpXpXpX",
"pXpXpXpXpXpXpXpXpXpXpXpXpXpXpXpXpXpXpXpXpXpXpXpXpXpXpXpXpXpXpXpXpXpXpXpXpXpXpXpXpXpXpXpXpXpXpXpXpXpXpXpXpXpXpXpXpXpXpXpXpXpXpXpXpXpXpX"
};
