/* XPM */
static char *f66d670318bd4a6bf81032899d807007qop0T0SUdmSdVoVk[] = {
/* columns rows colors chars-per-pixel */
"67 67 171 2 ",
"   c #391736",
".  c #371A39",
"X  c #3C203D",
"o  c #40192E",
"O  c #4E1E2E",
"+  c #541F2E",
"@  c #4C1F33",
"#  c #57222F",
"$  c #5A222A",
"%  c #492335",
"&  c #6D2627",
"*  c #602229",
"=  c #6C262A",
"-  c #6F2C2F",
";  c #692830",
":  c #612C3B",
">  c #6F2E3D",
",  c #762A31",
"<  c #742E3C",
"1  c #782F3B",
"2  c #7C3336",
"3  c #76303D",
"4  c #7A313D",
"5  c #371D42",
"6  c #3B1E40",
"7  c #3C2445",
"8  c #422646",
"9  c #432549",
"0  c #472848",
"q  c #452A4D",
"w  c #4A2C4F",
"e  c #572C44",
"r  c #512E48",
"t  c #4E3249",
"y  c #5B374F",
"u  c #462D53",
"i  c #4A2E51",
"p  c #4D3355",
"a  c #4C3559",
"s  c #4E395A",
"d  c #513455",
"f  c #523759",
"g  c #553B5C",
"h  c #583D5E",
"j  c #663849",
"k  c #783943",
"l  c #563E61",
"z  c #5A3C60",
"x  c #55405E",
"c  c #66465B",
"v  c #574160",
"b  c #5A4262",
"n  c #5E4B66",
"m  c #614765",
"M  c #624965",
"N  c #634C6A",
"B  c #901F14",
"V  c #8E2217",
"C  c #932217",
"Z  c #9A2316",
"A  c #942219",
"S  c #9B251A",
"D  c #9E291B",
"F  c #A22617",
"G  c #A42719",
"H  c #A32C1D",
"J  c #A82E1E",
"K  c #A5311E",
"L  c #AA321E",
"P  c #822A25",
"I  c #872E2A",
"U  c #9F2F27",
"Y  c #8C302E",
"T  c #963226",
"R  c #9E3528",
"E  c #893533",
"W  c #A52E21",
"Q  c #A92E22",
"!  c #A53222",
"~  c #AD3523",
"^  c #AE3824",
"/  c #A13329",
"(  c #AD3628",
")  c #AD392A",
"_  c #B13624",
"`  c #B23A26",
"'  c #B83B27",
"]  c #B23629",
"[  c #B53B29",
"{  c #BA3D2D",
"}  c #AD3F31",
"|  c #B53D32",
" . c #BA3E31",
".. c #AD402D",
"X. c #B8402D",
"o. c #B8502A",
"O. c #B95729",
"+. c #AF4431",
"@. c #AF4738",
"#. c #AE4B3E",
"$. c #BE4132",
"%. c #B14A37",
"&. c #C0472F",
"*. c #C04733",
"=. c #C34935",
"-. c #C54A3A",
";. c #C94B3C",
":. c #C36328",
">. c #CD732B",
",. c #CD792B",
"<. c #B55549",
"1. c #AC5D55",
"2. c #BA5E5C",
"3. c #BF6956",
"4. c #B76458",
"5. c #BD6C5B",
"6. c #BC6E68",
"7. c #BF7365",
"8. c #C16C5B",
"9. c #C5735D",
"0. c #C47565",
"q. c #C87367",
"w. c #C77B61",
"e. c #C47569",
"r. c #C87A68",
"t. c #C37D76",
"y. c #C47E79",
"u. c #DE862D",
"i. c #DD8E2E",
"p. c #DE9834",
"a. c #F7B13A",
"s. c #FCC93A",
"d. c #FDD13B",
"f. c #D88345",
"g. c #DF9954",
"h. c #E69D4E",
"j. c #C98676",
"k. c #CA877A",
"l. c #E6AD6C",
"z. c #EFB46A",
"x. c #FAC87B",
"c. c #CC8E87",
"v. c #D08E88",
"b. c #CE9289",
"n. c #CD978A",
"m. c #D09C9B",
"M. c #CEA59F",
"N. c #D4A69A",
"B. c #D6ABA3",
"V. c #DBAFA6",
"C. c #DCB1A8",
"Z. c #DEBCB2",
"A. c #E3BCBA",
"S. c #F7D382",
"D. c #E4CBC3",
"F. c #E7CCCB",
"G. c #E7D2CD",
"H. c #EBD6D4",
"J. c #EDDCDA",
"K. c #F1E6E3",
"L. c #F2E8E6",
"P. c #F5F2EE",
"I. c #F9F2EE",
"U. c #F7F5F3",
"Y. c #FAF7F5",
"T. c #FBF8F7",
"R. c #FCF7F8",
"E. c #FAFDFB",
"W. c #FDFDFB",
"Q. c #FCFCFC",
"!. c white",
/* pixels */
"!.!.!.!.!.!.!.!.!.!.!.!.!.!.!.!.!.!.!.!.!.!.!.!.!.!.!.!.!.!.!.!.!.!.!.!.!.E.!.!.!.!.!.!.!.!.!.!.!.!.!.!.!.!.!.!.!.!.!.!.!.!.!.!.!.!.!.",
"!.!.!.!.!.!.!.!.!.!.!.!.!.!.!.!.!.!.!.!.!.!.!.!.!.!.!.!.!.!.!.!.!.!.!.!.!.!.!.!.!.!.!.!.!.!.!.!.!.!.!.!.!.!.!.!.!.!.!.!.!.!.!.!.!.!.!.",
"!.!.!.!.!.!.!.!.!.!.!.!.!.!.!.!.!.!.!.!.!.!.!.!.!.!.!.!.!.E.!.!.!.!.!.!.W.W.!.!.!.!.!.!.!.!.!.!.!.!.!.!.!.!.!.!.!.!.!.!.!.!.!.!.!.!.!.",
"!.!.!.!.!.!.!.!.!.!.!.!.!.!.!.!.!.!.!.!.!.!.!.!.!.E.!.T.L.F.C.n.k.j.j.b.N.D.J.U.E.!.E.E.W.!.!.!.!.!.!.!.!.!.!.!.!.!.!.!.!.!.!.!.!.!.!.",
"!.!.!.!.!.!.!.!.!.!.!.!.!.!.!.!.!.!.!.!.!.!.!.!.T.T.H.c.<...~ ~ L ~ ~ ~ ^ [ #.e.A.P.E.!.!.!.!.!.!.!.!.!.!.!.!.!.!.!.!.!.!.!.!.!.!.!.!.",
"!.!.!.!.!.!.!.!.!.!.!.!.!.!.!.!.!.!.!.!.!.!.!.!.K.b.} ~ ! I & $ + O O + = P T ~ ~ 5.D.T.E.!.!.W.!.!.!.!.!.!.!.!.!.!.!.!.!.!.!.!.!.!.!.",
"!.!.!.!.!.!.!.!.!.!.!.!.!.!.!.!.!.!.!.!.!.R.T.G.4.~ T = @ X X 7 7 5 7 6 5 . o # I ~ @.N.U.E.!.!.E.!.!.!.!.!.!.!.!.!.!.!.!.!.!.!.!.!.!.",
"!.!.!.!.!.!.!.!.!.!.!.!.!.!.!.!.!.!.!.!.W.E.F.#.~ P % 7 q w w w q 7 q 0 9 9 9 5   * ! ~ v.Y.!.W.W.!.!.!.!.!.!.!.!.!.!.!.!.!.!.!.!.!.!.",
"!.!.!.!.!.!.!.!.!.!.!.!.!.!.!.!.!.!.!.!.!.H.<.~ - 0 p q i i p w w 9 i q q q 8 7 9 6 % U ) N.E.W.!.!.!.!.!.!.!.!.!.!.!.!.!.!.!.!.!.!.!.",
"!.!.!.!.!.!.!.!.!.!.!.!.!.!.!.!.!.!.!.!.I.7.! , t p d p u p p p p 9 i w w u 7 q q q 7 # ! @.F.E.!.!.!.!.!.!.!.!.!.!.!.!.!.!.!.!.!.!.!.",
"!.!.!.!.!.!.!.!.!.!.!.!.!.!.!.!.!.E.!.T.B.^ E t g f g f i p p d p q p p p q q p i w u 8 ; ~ 5.P.W.!.!.!.!.!.!.!.!.!.!.!.!.!.!.!.!.!.!.",
"!.!.!.!.!.!.!.!.!.!.!.!.!.!.!.!.!.E.E.K.<.R e f h h h g g i f f f q d d p q p p p p i u 7 Y ^ A.W.!.!.!.!.!.!.!.!.!.!.!.!.!.!.!.!.!.!.",
"!.!.!.!.!.!.!.!.!.!.!.!.!.!.!.!.!.!.E.B.~ 2 z p a h b h h f p g g i g f i p f d p p q q u : ~ e.T.W.!.!.!.!.!.!.!.!.!.!.!.!.!.!.!.!.!.",
"!.!.!.!.!.!.!.!.!.!.!.!.!.!.!.!.!.!.U.5./ j n c b p d b b v p g l p l f i g g f i i p d p r T %.J.E.!.!.!.!.!.!.!.!.!.!.!.!.!.!.!.!.!.",
"!.!.!.!.!.!.!.!.!.!.!.!.!.!.!.!.!.!.H.+.E m m n m m b p g b x p g u f p g h p p a g g g g d 2 ) Z.W.!.!.!.!.!.!.!.!.!.!.!.!.!.!.!.!.!.",
"!.!.!.!.!.!.!.!.!.!.!.!.!.!.!.!.!.E.V.~ k N N N M M M m h p v p g g g p h p f l l h h g g g j ( n.T.W.!.!.!.!.!.!.!.!.!.!.!.!.!.!.!.!.",
"!.!.!.!.!.!.!.!.!.!.!.!.!.!.!.!.!.R.j.! c N N N N N n n n n p x s g a l q v b b x h h h h g y / 0.Y.W.!.!.!.!.!.!.!.!.!.!.!.!.!.!.!.!.",
"!.!.!.!.!.!.!.!.!.!.!.!.!.!.!.!.!.R.7./ 2 4 4 4 4 4 4 4 4 4 < < < k > > < 3 1 4 1 1 1 1 1 1 4 / 5.Y.W.!.!.!.!.!.!.!.!.!.!.!.!.!.!.!.!.",
"!.!.!.!.!.!.!.!.!.!.!.!.!.!.!.!.!.Y.1.B A A A C A A C A C A C A C A A V C C C C A C C C C A C C 1.Y.W.!.!.!.!.!.!.!.!.!.!.!.!.!.!.!.!.",
"!.!.!.!.!.!.!.!.!.!.!.!.!.!.!.!.!.Y.6.H H W K H H W H ! H H K H H ! ! H W H W ! K H W H W ! K H 4.Y.W.!.!.!.!.!.!.!.!.!.!.!.!.!.!.!.!.",
"!.!.!.!.!.!.!.!.!.!.!.!.!.!.!.!.!.T.0.~ ^ ~ ! K K H K ~ L J L ~ ~ ~ ! K ! ! ! ! K H ! L ~ ^ _ ~ 5.Y.W.!.!.!.!.!.!.!.!.!.!.!.!.!.!.!.!.",
"!.!.!.!.!.!.!.!.!.!.!.!.!.!.!.!.!.T.0.~ ^ W | | | | | X.| { [ D ~ ~ Q | | | | | | [ { ! H ^ _ ~ 5.Y.W.!.!.!.!.!.!.!.!.!.!.!.!.!.!.!.!.",
"!.!.!.!.!.!.!.!.!.!.!.!.!.!.!.!.!.T.0.~ ^ ~ -.=.=.$.=.=.=.=.$.S ^ ~ ] -.=.*.=.=.=.&.=.[ H ^ _ ~ 5.Y.W.!.!.!.!.!.!.!.!.!.!.!.!.!.!.!.!.",
"!.!.!.!.!.!.!.!.!.!.!.!.!.!.!.!.!.T.0.~ ^ ~ $.` ` ` [ [ [ _ ] D ~ ~ _ X.[ [ [ [ [ _ _ ( H _ _ ~ 5.Y.W.!.!.!.!.!.!.!.!.!.!.!.!.!.!.!.!.",
"!.!.!.!.!.!.!.!.!.!.!.!.!.!.!.!.!.T.0.~ ^ ~ $.[ [ _ _ _ ^ ~ ] S ^ ~ ^ { [ [ [ _ ~ ~ ~ ( H _ _ ~ 5.Y.W.!.!.!.!.!.!.!.!.!.!.!.!.!.!.!.!.",
"!.!.!.!.!.!.!.!.!.!.!.!.!.!.!.!.!.T.0.~ ^ ~ $.[ ^ ~ ^ ^ ~ L ] S ~ ~ ( { [ ~ ~ ~ ~ ~ ~ ^ H _ ^ ~ 5.T.!.!.!.!.!.!.!.!.!.!.!.!.!.!.!.!.!.",
"!.!.!.!.!.!.!.!.!.!.!.!.!.!.!.!.!.T.0.~ ~ ~ $.~ ~ ~ ^ _ ~ ~ ] S ~ ~ ^ { _ L ~ ~ ~ ~ ~ ^ H _ ^ _ 5.Y.!.!.!.!.!.!.!.!.!.!.!.!.!.!.!.!.!.",
"!.!.!.!.!.!.!.!.!.!.!.!.!.!.!.!.!.T.0.~ ~ ~ $.~ ~ ~ ^ _ ~ ~ ] S ~ ~ _ { ~ ~ ~ ~ ~ ~ ~ ^ H _ ^ _ 5.Y.!.!.!.!.!.!.!.!.!.!.!.!.!.!.!.!.!.",
"!.!.!.!.!.!.!.!.!.!.!.!.!.!.!.!.!.T.0.~ ~ ~ { ~ ~ ~ ^ ~ ^ ~ ] S ~ ~ ] [ ~ L ~ ^ ^ ~ ^ ~ H _ ^ _ 5.Y.!.!.!.!.!.!.!.!.!.!.!.!.!.!.!.!.!.",
"!.!.!.!.!.!.!.!.!.!.!.!.!.!.!.!.!.T.0.~ ~ ~ ' ~ ~ ~ ^ ~ _ ~ _ D ~ ~ ^ [ ~ L ^ ~ ~ ~ ^ ^ H _ ^ _ 5.Y.W.!.!.!.!.!.!.!.!.!.!.!.!.!.!.!.!.",
"!.!.!.!.!.!.!.!.!.!.!.!.!.!.!.!.!.T.0.~ ~ ~ [ ~ ~ ! _ _ _ ~ _ D ~ ~ ~ _ ~ ~ ^ ^ ~ ~ ^ ( D _ _ ~ 5.Y.!.!.!.!.!.!.!.!.!.!.!.!.!.!.!.!.!.",
"!.!.!.!.!.!.!.!.!.!.!.!.!.!.!.!.!.T.0.~ ~ W [ ~ ~ ~ ^ ~ ~ ~ _ D ~ ~ ~ _ ~ ~ ^ ^ ~ ~ ~ ^ D ^ _ ~ 5.Y.!.!.!.!.!.!.!.!.!.!.!.!.!.!.!.!.!.",
"!.!.!.!.!.!.!.!.!.!.!.!.!.!.!.!.!.T.0.~ ~ W [ ~ ~ ~ ^ ^ ~ ~ ] D ~ ~ ^ _ ~ ^ ^ _ ~ ~ ~ ( H ^ ~ ~ 5.Y.!.!.!.!.!.!.!.!.!.!.!.!.!.!.!.!.!.",
"!.!.!.!.!.!.!.!.!.!.!.!.!.!.!.!.!.T.0.~ ~ H [ ~ ~ ~ ^ ^ ~ ~ ] S ~ ~ ~ _ ~ ~ ~ _ ~ ~ ^ ] H ~ ~ ~ 5.Y.!.!.!.!.!.!.!.!.!.!.!.!.!.!.!.!.!.",
"!.!.!.!.!.!.!.!.!.!.!.!.!.!.!.!.!.T.0.~ ~ J ' ~ ~ ~ ^ ^ ~ ~ ] S ~ ! ^ _ ~ ~ ~ _ ~ ~ ^ ] H ~ ~ ~ 5.Y.!.!.!.!.!.!.!.!.!.!.!.!.!.!.!.!.!.",
"!.!.!.!.!.!.!.!.!.!.!.!.!.!.!.!.!.T.q.~ ^ J [ ~ ~ ~ ^ _ ~ ~ ] D ~ ! ~ _ ~ ~ ~ _ ~ ~ ^ ( H ~ ^ L 5.Y.!.!.!.!.!.!.!.!.!.!.!.!.!.!.!.!.!.",
"!.!.!.!.!.!.!.!.!.!.!.!.!.!.!.!.!.T.0.~ _ J [ ~ ~ ~ ^ _ ~ _ ] D ^ ! ~ _ ~ ~ ~ ~ ~ ~ ~ ^ H ~ ~ ~ 8.Y.!.!.!.!.!.!.!.!.!.!.!.!.!.!.!.!.!.",
"!.!.!.!.!.!.!.!.!.!.!.!.!.!.!.!.!.R.q.~ _ J [ ~ ~ ~ ^ ^ ~ _ ] D ^ ! ~ _ ~ ~ ~ _ ^ ~ ~ ^ H o.f.O.3.Y.!.!.!.!.!.!.!.!.!.!.!.!.!.!.!.!.!.",
"!.!.!.!.!.!.!.!.!.!.!.!.!.!.!.!.!.T.q.~ _ H [ ~ ~ ~ ~ ~ ~ _ ] S ~ ~ ~ _ ~ ^ ^ _ ^ ~ ~ [ H g.S.l.9.Y.!.!.!.!.!.!.!.!.!.!.!.!.!.!.!.!.!.",
"!.!.!.!.!.!.!.!.!.!.!.!.!.!.!.!.!.T.0.~ _ H [ ~ ~ ~ ~ ~ ~ _ ] S ~ ~ ~ _ ~ ^ ^ ^ ^ ~ ~ ] K h.x.z.w.U.!.!.!.!.!.!.!.!.!.!.!.!.!.!.!.!.!.",
"!.!.!.!.!.!.!.!.!.!.!.!.!.!.!.!.!.T.0.~ ~ J [ ~ ~ ~ ~ ~ ~ _ ] D ~ L ~ _ ~ _ ^ ^ ^ ~ ~ [ D >.a.u.8.Y.!.!.!.!.!.!.!.!.!.!.!.!.!.!.!.!.!.",
"!.!.!.!.!.!.!.!.!.!.!.!.!.!.!.!.!.T.e.^ ~ H [ ~ ~ ~ ~ ~ ~ _ ] D ~ K ~ _ ~ _ ~ ~ ~ ~ ~ [ D ,.s.i.5.Y.!.!.!.!.!.!.!.!.!.!.!.!.!.!.!.!.!.",
"!.!.!.!.!.!.!.!.!.!.!.!.!.!.!.!.!.T.e._ ~ H [ ~ ~ ~ ~ ~ ~ ~ ] S ~ K ~ _ ~ ^ ~ ~ ~ ~ _ ] D ,.d.u.8.U.!.!.!.!.!.!.!.!.!.!.!.!.!.!.!.!.!.",
"!.!.!.!.!.!.!.!.!.!.!.!.!.!.!.!.!.T.e.^ ~ H [ ~ ~ _ ~ ~ _ _ ] S ~ K ~ _ ~ _ ~ ~ ~ ^ _ _ D O.p.:.5.Y.!.!.!.!.!.!.!.!.!.!.!.!.!.!.!.!.!.",
"!.!.!.!.!.!.!.!.!.!.!.!.!.!.!.!.!.T.e._ ~ G ^ W ~ ~ ~ ~ ~ _ ~ D ~ L W ~ ~ ~ ~ ~ W ~ ~ ~ H ^ L ~ 5.Y.!.!.!.!.!.!.!.!.!.!.!.!.!.!.!.!.!.",
"!.!.!.!.!.!.!.!.!.!.!.!.!.!.!.!.!.T.e._ ~ S A A Z Z A A A Z C D ~ ! Z A S S S Z C A Z Z D ~ _ ~ 5.T.W.!.!.!.!.!.!.!.!.!.!.!.!.!.!.!.!.",
"!.!.!.!.!.!.!.!.!.!.!.!.!.!.!.!.!.T.e._ ~ ^ ^ ~ ^ ^ ^ ^ ^ _ _ ^ _ ~ ^ ^ _ _ _ ^ ~ ~ _ _ ~ ~ _ ~ 5.Y.W.!.!.!.!.!.!.!.!.!.!.!.!.!.!.!.!.",
"!.!.!.!.!.!.!.!.!.!.!.!.!.!.!.!.!.T.e.~ ^ H H H W W W H W K W W _ ! W H ! ! H H H H K H ! ^ ~ ~ 5.Y.W.!.!.!.!.!.!.!.!.!.!.!.!.!.!.!.!.",
"!.!.!.!.!.!.!.!.!.!.!.!.!.!.!.!.!.R.e.~ ~ ~ -.-.-.;.;.-.;.;.-.D _ K $.;.;.;.;.-.-.-.-.[ H ^ ~ ~ 5.Y.W.!.!.!.!.!.!.!.!.!.!.!.!.!.!.!.!.",
"!.!.!.!.!.!.!.!.!.!.!.!.!.!.!.!.!.Y.0.~ ~ ~ { ` ` ` [ ` [ [ | D ~ K { ` ` [ [ ` ` _ [ ~ H _ ^ ~ 8.Y.W.!.!.!.!.!.!.!.!.!.!.!.!.!.!.!.!.",
"!.!.!.!.!.!.!.!.!.!.!.!.!.!.!.!.!.T.0.~ ~ ~  .` [ [ ` _ _ _ _ D ~ W { [ [ [ [ [ _ ^ _ W W _ _ ~ 8.Y.!.!.!.!.!.!.!.!.!.!.!.!.!.!.!.!.!.",
"!.!.!.!.!.!.!.!.!.!.!.!.!.!.!.!.!.T.0.~ ~ ~  .` ` _ ~ ~ ~ ~ _ D ~ W { [ [ ` _ ~ ~ ~ _ W W _ ^ ~ 8.Y.!.!.!.!.!.!.!.!.!.!.!.!.!.!.!.!.!.",
"!.!.!.!.!.!.!.!.!.!.!.!.!.!.!.!.!.T.0.~ ~ ^ $._ _ _ ~ ~ ~ _ _ D ~ W { [ _ ~ _ ~ ~ ~ _ W W _ ^ ~ 8.Y.!.!.!.!.!.!.!.!.!.!.!.!.!.!.!.!.!.",
"!.!.!.!.!.!.!.!.!.!.!.!.!.!.!.!.!.Y.0.~ ~ ^ { ~ ~ ~ ^ ~ ~ _ _ D ~ W { [ _ ~ ~ ~ ~ ~ _ W H _ ~ ~ 8.Y.!.!.!.!.!.!.!.!.!.!.!.!.!.!.!.!.!.",
"!.!.!.!.!.!.!.!.!.!.!.!.!.!.!.!.!.Y.0.~ ~ ~ { L ^ ~ _ ~ ~ ~ ] D ~ W { _ ~ ~ ~ ~ ~ ~ _ W H ~ ~ ~ 5.Y.W.!.!.!.!.!.!.!.!.!.!.!.!.!.!.!.!.",
"!.!.!.!.!.!.!.!.!.!.!.!.!.!.!.!.!.Y.0.~ ~ ~ [ L _ _ ~ ~ ~ ~ ] D ~ H [ ~ ~ ^ ^ ~ ~ ~ _ W K _ ~ ~ 8.Y.W.!.!.!.!.!.!.!.!.!.!.!.!.!.!.!.!.",
"!.!.!.!.!.!.!.!.!.!.!.!.!.!.!.!.!.Y.0.~ ~ J [ L ~ ^ ^ ^ ~ ^ ] D ~ H [ ~ ~ _ ~ ~ ^ ~ _ W K _ ~ ~ 8.Y.W.!.!.!.!.!.!.!.!.!.!.!.!.!.!.!.!.",
"!.!.!.!.!.!.!.!.!.!.!.!.!.!.!.!.!.Y.0.~ ~ W [ L _ ^ ^ ~ ~ ^ _ D ~ W [ ~ _ _ ~ ~ ~ ~ _ Q H _ ~ ~ 8.Y.W.!.!.!.!.!.!.!.!.!.!.!.!.!.!.!.!.",
"!.!.!.!.!.!.!.!.!.!.!.!.!.!.!.!.!.Y.0.~ ~ W ] ~ ^ ~ ~ ~ ~ _ ] D ~ W ] ~ ^ _ ^ ~ ^ ~ _ W K _ ~ ~ 8.Y.W.!.!.!.!.!.!.!.!.!.!.!.!.!.!.!.!.",
"!.!.!.!.!.!.!.!.!.!.!.!.!.!.!.!.!.Y.0.~ ~ D Z Z Z Z Z Z S S Z Z ~ H D S D D D D D S D A W ^ ~ L 5.Y.W.!.!.!.!.!.!.!.!.!.!.!.!.!.!.!.!.",
"!.!.!.!.!.!.!.!.!.!.!.!.!.!.!.!.!.T.r.] _ _ _ _ _ _ [ _ [ [ [ [ [ [ [ _ _ _ _ _ _ ~ _ _ ' ' [ _ 0.Y.!.!.!.!.!.!.!.!.!.!.!.!.!.!.!.!.!.",
"!.!.!.!.!.!.!.!.!.!.!.!.!.!.!.!.!.T.0.Q ^ _ ~ ~ ] ~ ] ~ ] ( _ ~ ~ _ ~ ~ _ _ _ _ _ ~ ] _ _ ~ _ ~ 5.Y.!.!.!.!.!.!.!.!.!.!.!.!.!.!.!.!.!.",
"!.!.!.!.!.!.!.!.!.!.!.!.!.!.!.!.!.Y.5.F G G G G G G G G G G G G G G G G G G G G G G G F G G G F 2.Y.!.!.!.!.!.!.!.!.!.!.!.!.!.!.!.!.!.",
"!.!.!.!.!.!.!.!.!.!.!.!.!.!.!.!.!.R.M.t.y.y.y.t.t.t.t.t.t.t.t.t.t.t.t.t.t.t.t.t.t.t.t.t.t.t.t.t.m.T.!.!.!.!.!.!.!.!.!.!.!.!.!.!.!.!.!.",
"!.!.!.!.!.!.!.!.!.!.!.!.!.!.!.!.!.!.E.R.W.W.W.W.W.W.W.W.W.W.W.E.W.T.W.W.W.W.W.W.W.E.E.!.W.E.E.E.!.!.!.!.!.!.!.!.!.!.!.!.!.!.!.!.!.!.!.",
"!.!.!.!.!.!.!.!.!.!.!.!.!.!.!.!.!.!.!.!.!.!.W.W.W.W.W.W.W.W.W.W.W.W.W.W.W.W.W.W.W.W.W.W.W.W.!.!.!.!.!.!.!.!.!.!.!.!.!.!.!.!.!.!.!.!.!.",
"!.!.!.!.!.!.!.!.!.!.!.!.!.!.!.!.!.!.!.!.!.!.!.!.!.!.!.!.!.!.!.!.!.!.!.!.!.!.!.!.!.!.!.!.!.!.!.!.!.!.!.!.!.!.!.!.!.!.!.!.!.!.!.!.!.!.!."
};
