/* XPM */
static char *_dc057d4ea4f4798ee808e4955b448cf31nKMRtz8rLYH6CM[] = {
/* columns rows colors chars-per-pixel */
"67 67 205 2 ",
"   c #151712",
".  c #191413",
"X  c #1C1619",
"o  c #1D1D1A",
"O  c #231716",
"+  c #301517",
"@  c #391C1A",
"#  c #22231F",
"$  c #2F221E",
"%  c #3B201C",
"&  c #242423",
"*  c #292926",
"=  c #2D2D2B",
"-  c #372928",
";  c #31312E",
":  c #39322C",
">  c #353532",
",  c #393736",
"<  c #373833",
"1  c #3A3B36",
"2  c #3E3E3B",
"3  c #471B17",
"4  c #4D1D1A",
"5  c #571C18",
"6  c #661E1C",
"7  c #48201B",
"8  c #5B241E",
"9  c #63231E",
"0  c #78231F",
"q  c #452723",
"w  c #402924",
"e  c #4D342C",
"r  c #483B36",
"t  c #5A3E39",
"y  c #642A25",
"u  c #682C27",
"i  c #782B25",
"p  c #623A2F",
"a  c #683E37",
"s  c #773935",
"d  c #3E403A",
"f  c #434237",
"g  c #42433D",
"h  c #49433C",
"j  c #46493F",
"k  c #49483D",
"l  c #594339",
"z  c #605239",
"x  c #454642",
"c  c #464943",
"v  c #4A4C45",
"b  c #4C4E49",
"n  c #524E44",
"m  c #4E5147",
"M  c #4E514A",
"N  c #535145",
"B  c #5A5446",
"V  c #52544D",
"C  c #57584F",
"Z  c #5C594D",
"A  c #545651",
"S  c #565952",
"D  c #5A5C55",
"F  c #5C5E58",
"G  c #635946",
"H  c #645A48",
"J  c #615F57",
"K  c #5F605A",
"L  c #6C6554",
"P  c #63635C",
"I  c #696759",
"U  c #68665C",
"Y  c #786551",
"T  c #796C52",
"R  c #766A5F",
"E  c #646461",
"W  c #6C6D68",
"Q  c #747264",
"!  c #72746D",
"~  c #79776B",
"^  c #7C7A6C",
"/  c #767673",
"(  c #7C7D75",
")  c #7B7B78",
"_  c #85221F",
"`  c #8A2525",
"'  c #87433D",
"]  c #92413E",
"[  c #95534E",
"{  c #8C5E52",
"}  c #9C5A53",
"|  c #886E5A",
" . c #94605D",
".. c #827457",
"X. c #84765B",
"o. c #86795E",
"O. c #806E64",
"+. c #837A65",
"@. c #8B7E62",
"#. c #847669",
"$. c #9A7463",
"%. c #A36D61",
"&. c #8F8266",
"*. c #918566",
"=. c #94856A",
"-. c #95886B",
";. c #868373",
":. c #8F8471",
">. c #86867A",
",. c #918874",
"<. c #9A8E72",
"1. c #918E7D",
"2. c #9E9275",
"3. c #97907D",
"4. c #9C947C",
"5. c #A3967A",
"6. c #A6977A",
"7. c #8A8B82",
"8. c #8E8E8B",
"9. c #8F9080",
"0. c #999585",
"q. c #9B9584",
"w. c #91918E",
"e. c #969793",
"r. c #989995",
"t. c #9A9B98",
"y. c #A59C83",
"u. c #AB9F83",
"i. c #A39E8B",
"p. c #A89B8A",
"a. c #A29F90",
"s. c #AEA185",
"d. c #AAA28A",
"f. c #B2A78C",
"g. c #ABA593",
"h. c #AFAB97",
"j. c #A1A29E",
"k. c #B3AB94",
"l. c #BAAF94",
"z. c #B3A598",
"x. c #B5AF9E",
"c. c #BAB294",
"v. c #B6B19E",
"b. c #BAB49C",
"n. c #A3A3A1",
"m. c #A9A8A4",
"M. c #AEAEAB",
"N. c #B5B0A2",
"B. c #BBB5A2",
"V. c #BEB9A3",
"C. c #B3B3AE",
"Z. c #BFBAA8",
"A. c #B4B4B3",
"S. c #BDBDBB",
"D. c #C49C96",
"F. c #C0B79A",
"G. c #C2B99D",
"H. c #C4BDA4",
"J. c #C4BEAA",
"K. c #C0BEB4",
"L. c #BFC0BD",
"P. c #C7C0A5",
"I. c #C8C1A6",
"U. c #C6C0AB",
"Y. c #CCC5AD",
"T. c #CFC8AE",
"R. c #D1CAAE",
"E. c #CCC6B2",
"W. c #CEC9B3",
"Q. c #C0C0BF",
"!. c #CFCBB9",
"~. c #D3CDB3",
"^. c #D3CEB9",
"/. c #D6D0B5",
"(. c #D9D4B7",
"). c #D6D1BB",
"_. c #D9D3BB",
"`. c #C7C7C5",
"'. c #CACAC4",
"]. c #CCCDCA",
"[. c #D7D2C1",
"{. c #DAD5C2",
"}. c #DCD9C6",
"|. c #D6D4CF",
" X c #DEDBCC",
".X c #D4D5D3",
"XX c #DAD9D5",
"oX c #DCDCDA",
"OX c #E0DCCF",
"+X c #E0D3D1",
"@X c #E2DFD3",
"#X c #E3E0D3",
"$X c #E5E4DC",
"%X c #E9E7DD",
"&X c #ECEADE",
"*X c #E6E6E5",
"=X c #EFE0E0",
"-X c #EEECE4",
";X c #EDEDEB",
":X c #F0EEE8",
">X c #F2F1EC",
",X c #F5F4F2",
"<X c #F9F7F3",
"1X c #FAFAF6",
"2X c #FFFFFF",
/* pixels */
"2X2X2X2X2X2X2X2X2X2X2X2X2X2X2X2X2X2X2X2X2X2X2X2X2X2X2X2X2X2X2X2X2X2X2X2X2X2X2X2X2X2X2X2X2X2X2X2X2X2X2X2X2X2X2X2X2X2X2X2X2X2X2X2X2X2X2X",
"2X2X2X2X2X2X2X2X2X2X2X2X2X2X2X2X2X2X2X2X2X2X2X2X2X2X2X2X2X2X2X2X2X2X2X2X2X2X2X2X2X2X2X2X2X2X2X2X2X2X2X2X2X2X2X2X2X2X2X2X2X2X2X2X2X2X2X",
"2X2X2X2X2X2X2X2X2X2X2X2X2X2X2X2X2X2X2X2X2X2X2X2X2X2X2X2X2X2X2X2X2X2X2X2X2X2X2X2X2X2X2X2X2X2X2X2X2X2X2X2X2X2X2X2X2X2X2X2X2X2X2X2X2X2X2X",
"2X2X2X2X2X2X2X2X2X2X2X2X2X2X2X2X2X2X2X2X2X2X2X2X2X2X2X2X2X2X2X2X2X2X2X2X2X2X2X2X2X2X2X2X2X2X2X2X2X2X2X2X2X2X2X2X2X2X2X2X2X2X2X2X2X2X2X",
"2X2X2X2X2X2X2X2X2X2X2X2X2X2X2X2X2X2X2X2X2X2X2X2X2X2X2X2X2X2X2X2X2X2X2X2X2X2X2X2X2X2X2X2X2X2X2X2X2X2X2X2X2X2X2X2X2X2X2X2X2X2X2X2X2X2X2X",
"2X2X2X2X2X2X2X2X2X2X2X2X2X2X2X2X2X2X2X2X2X2X2X2X2X2X2X2X2X2X2X2X2X2X2X2X2X2X2X2X2X2X2X2X2X2X2X2X2X2X2X2X2X2X2X2X2X2X2X2X2X2X2X2X2X2X2X",
"2X2X2X2X2X2X2X2X2X2X2X2X2X2X2X2X2X2X2X2X2X2X2X2X2X2X2X2X2X2X2X2X2X2X2X2X2X2X2X2X2X2X2X2X2X2X2X2X2X2X2X2X2X2X2X2X2X2X2X2X2X2X2X2X2X2X2X",
"2X2X2X2X2X2X2X2X2X2X2X2X2X2X2X2X2X2X2X2X2X2X2X2X2X2X2X2X2X2X2X2X2X2X2X2X2X2X2X2X2X2X2X2X2X2X2X2X2X2X2X2X2X2X2X2X2X2X2X2X2X2X2X2X2X2X2X",
"2X2X2X2X2X2X2X2X2X2X2X2X2X2X2X2X2X2X2X2X2X2X2X2X2X2X2X2X2X2X2X2X2X2X2X2X2X2X2X2X2X2X2X2X2X2X2X2X2X2X2X2X2X2X2X2X2X2X2X2X2X2X2X2X2X2X2X",
"2X2X2X2X2X2X2X2X2X2X2X2X2X2X2X2X2X2X2X2X2X2X2X2X2X2X2X2X2X2X2X2X2X2X2X2X2X2X2X2X2X2X2X2X2X2X2X2X2X2X2X2X2X2X2X2X2X2X2X2X2X2X2X2X2X2X2X",
"2X2X2X2X2X2X2X2X2X2X2X2X2X2X2X2X2X2X2X2X2X2X2X2X2X2X2X2X2X2X2X2X2X2X2X2X2X2X2X2X2X2X2X2X2X2X2X2X2X2X2X2X2X2X2X2X2X2X2X2X2X2X2X2X2X2X2X",
"2X2X2X2X2X2X2X2X2X2X2X2X2X2X2X2X2X2X2X2X2X2X2X2X2X2X2X2X2X2X2X2X2X2X2X2X2X2X2X2X2X2X2X2X2X2X2X2X2X2X2X2X2X2X2X2X2X2X2X2X2X2X2X2X2X2X2X",
"2X2X2X2X2X2X2X2X2X2X2X2X2X2X2X2X2X2X2X2X2X2X2X2X2X2X2X2X2X2X2X2X2X2X2X2X2X2X2X2X2X2X2X2X2X2X2X2X2X2X2X2X2X2X2X2X2X2X2X2X2X2X2X2X2X2X2X",
"2X2X2X2X2X2X2X2X2X2X2X2X2X2X2X2X2X2X2X2X2X2X2X2X2X2X2X1X>X-X-X-X>X1X1X2X2X2X2X2X2X2X2X2X2X2X2X2X2X2X2X2X2X2X2X2X2X2X2X2X2X2X2X2X2X2X2X",
"2X2X2X2X2X2X2X2X2X2X2X2X2X2X2X2X2X2X2X2X2X2X2X2X2X2X-X X{._._._.{.}.%X1X2X2X2X2X2X2X2X2X2X2X2X2X2X2X2X2X2X2X2X2X2X2X2X2X2X2X2X2X2X2X2X",
"2X2X2X2X2X2X2X2X2X2X2X2X2X2X2X2X2X2X2X2X2X2X2X2X1X&X}.}.{.[.{.{.{.{.[.@X1X2X2X2X2X2X2X2X2X2X2X2X2X2X2X2X2X2X2X2X2X2X2X2X2X2X2X2X2X2X2X",
"2X2X2X2X2X2X2X2X2X2X2X2X2X2X2X2X2X2X2X2X2X2X2X1X$X}.}.).~.Y.E.E.~.I.H.~.[.<X2X2X2X2X2X2X2X2X2X2X2X2X2X2X2X2X2X2X2X2X2X2X2X2X2X2X2X2X2X",
"2X2X2X2X2X2X2X2X2X2X2X2X2X2X2X2X2X2X2X2X2X2X2X;X}.).J.k.y.3.q.q.i.y.u.f.G.OX2X2X2X2X2X2X2X2X2X2X2X2X2X2X2X2X2X2X2X2X2X2X2X2X2X2X2X2X2X",
"2X2X2X2X2X2X2X2X2X2X2X2X2X2X2X2X2X2X2X2X2X2X1X$XY.B.p.:.R J R #.O.Y | $.6.^.1X2X2X2X2X2X2X2X2X2X2X2X2X2X2X2X2X2X2X2X2X2X2X2X2X2X2X2X2X",
"2X2X2X2X2X2X2X2X2X2X2X2X2X2X2X2X2X2X2X2X2X2X=XD.%.} [ } } [ ' s a a s ] { z.<X2X1X*XQ.j.t.m.'.,X2X2X2X2X2X2X2X2X2X2X2X2X2X2X2X2X2X2X2X",
"2X2X2X2X2X2X2X2X2X2X2X2X2X2X2X2X2X2X2X2X2X2XD._ 3 q G e 0 ` 5 O h U @ i p l #.C./ A v g g x V ! ].2X2X2X2X2X2X2X2X2X2X2X2X2X2X2X2X2X2X",
"2X2X2X2X2X2X2X2X2X2X2X2X2X2X2X2X2X2X2X2X2X2X+Xs . & , - 6 4 8 .   o + y n : , 2 < ; * & & & & > A .X2X2X2X2X2X2X2X2X2X2X2X2X2X2X2X2X2X",
"2X2X2X2X2X2X2X2X2X2X2X2X2X2X2X2X2X2X1X*XoX].'. .@ X X O 5 : u % o X 8 7 #   = = * * = = = = * & ; 8.2X2X2X2X2X2X2X2X2X2X2X2X2X2X2X2X2X",
"2X2X2X2X2X2X2X2X2X2X2X2X2X2X2X2X;XM.) E D A b l s e - 9 4 M t s a u 9 $ * = * = ; > < g 2 < ; = ; 8.2X2X2X2X2X2X2X2X2X2X2X2X2X2X2X2X2X",
"2X2X2X2X2X2X2X2X2X2X2X2X2X2X2X`.P b g > = * = > w y y 3 r V N r q % - 2 c oXA.E 1 > S >.S 2 ; ; W *X2X2X2X2X2X2X2X2X2X2X2X2X2X2X2X2X2X",
"2X2X2X2X2X2X2X2X2X2X2X2X2X1X`.V , & # & * ; > > > * > x M S A V M b M C C |.2X1X,XXXS.m.j.n.A.oX1X2X2X2X2X2X2X2X2X2X2X2X2X2X2X2X2X2X2X",
"2X2X2X2X2X2X2X2X2X2X2X2X2X*XD ; # & ; < 2 2 x r.b x c b S D F S V V M C S C.2X2X2X2X2X2X2X2X2X2X2X2X2X2X2X2X2X2X2X2X2X2X2X2X2X2X2X2X2X",
"2X2X2X2X2X2X2X2X2X2X2X2X2Xn.= o * > , d 2 D ].oXx x v V D K P K D S V V S w.2X2X2X2X2X2X2X2X2X2X2X2X2X2X2X2X2X2X2X2X2X2X2X2X2X2X2X2X2X",
"2X2X2X2X2X2X2X2X2X2X2X2X1X/ & * > x v x w.;X2X].x x M V D K P P D A M V S ( 2X2X2X2X2X2X2X2X2X2X2X2X2X2X2X2X2X2X2X2X2X2X2X2X2X2X2X2X2X",
"2X2X2X2X2X2X2X2X2X2X2X2X2XM.= > x S ) XX2X2X2X].x v b V D F F P V d v b D ( 1X2X2X2X2X2X2X2X2X2X2X2X2X2X2X2X2X2X2X2X2X2X2X2X2X2X2X2X2X",
"2X2X2X2X2X2X2X2X2X2X2X2X2X1XS.n.S.*X2X2X2X2X2X].c x g b S D D D v v b v D / 1X2X2X2X2X2X2X2X2X2X2X2X2X2X2X2X2X2X2X2X2X2X2X2X2X2X2X2X2X",
"2X2X2X2X2X2X2X2X2X2X2X2X2X2X2X2X2X2X2X2X2X2X2XXXM c v v M M V M v v c v S ( 2X2X2X2X2X2X2X2X2X2X2X2X2X2X2X2X2X2X2X2X2X2X2X2X2X2X2X2X2X",
"2X2X2X2X2X2X2X2X2X2X2X2X2X2X2X2X2X2X2X2X2X2X2X,XK b v v v v v c x g g c N r.1X1X2X2X2X2X2X2X2X2X2X2X2X2X2X2X2X2X2X2X2X2X2X2X2X2X2X2X2X",
"2X2X2X2X2X2X2X2X2X2X2X2X2X2X2X2X2X2X2X2X2X2X2X2Xr.v v v v v c x g d d c N 3. X1X2X2X2X2X2X2X2X2X2X2X2X2X2X2X2X2X2X2X2X2X2X2X2X2X2X2X2X",
"2X2X2X2X2X2X2X2X2X2X2X2X2X2X2X2X2X2X2X2X2X2X2X2X;XF c c c c g g d 2 2 f L 2.k.-X1X2X2X2X2X2X2X2X2X2X2X2X2X2X2X2X2X2X2X2X2X2X2X2X2X2X2X",
"2X2X2X2X2X2X2X2X2X2X2X2X2X2X2X2X2X2X1X2X2X2X2X2X2X].j g g g d d 2 2 f N T <.J.!.%X1X2X2X2X2X2X2X2X2X2X2X2X2X2X2X2X2X2X2X2X2X2X2X2X2X2X",
"2X2X2X2X2X2X2X2X2X2X2X2X2X2X2X2X2X1Xw.t.1X2X2X2X1XK.L n k f f f h B H H @.b.^.).{.OX1X2X2X2X2X2X2X2X2X2X2X2X2X2X2X2X2X2X2X2X2X2X2X2X2X",
"2X2X2X2X2X2X2X2X2X2X2X2X2X2X2X2X2X;XD b ,X2X2X2X>Xg.+.H G B H G z Y X.&.s.I.^.}.{.W.$X2X2X2X2X2X2X2X2X2X2X2X2X2X2X2X2X2X2X2X2X2X2X2X2X",
"2X2X2X2X2X2X2X2X2X2X2X2X2X2X2X2X2X;XV x ,X2X2X1X'.B.g.:.,.q.g.y.<.l.Y.Y.b.b.H.W.9.v D '.2X2X2X2X2X2X2X2X2X2X2X2X2X2X2X2X2X2X2X2X2X2X2X",
"2X2X2X2X2X2X2X2X2X2X2X2X2X2X2X2X2X;Xb g ;X1X,Xt.7.v.Z.B.x.Z.J.I.I.^.).U.U Q E.g.C V c P ;X2X2X2X2X2X2X2X2X2X2X2X2X2X2X2X2X2X2X2X2X2X2X",
"2X2X2X2X2X2X2X2X2X2X2X2X2X2X2X2X2XoXv x w.8.W x ^ b.V.V.U.J.U.E.W.(.^.h.A V Z.i.j D v x '.2X2X2X2X2X2X2X2X2X2X2X2X2X2X2X2X2X2X2X2X2X2X",
"2X2X2X2X2X2X2X2X2X2X2X2X2X2X2X2X2XS.g x M S g , 1 ;.V.U.E.E.Y.W.(._.~.B.V b a.h.k b A c e.2X2X2X2X2X2X2X2X2X2X2X2X2X2X2X2X2X2X2X2X2X2X",
"2X2X2X2X2X2X2X2X2X2X2X2X2X2X2X2X2X7.g g M F d < > V B.Y.E.~.~.~.(._.^.W.J M ^ k.U d A N F ;X2X2X2X2X2X2X2X2X2X2X2X2X2X2X2X2X2X2X2X2X2X",
"2X2X2X2X2X2X2X2X2X2X2X2X2X2X2X2X].b x x c C g ; = c g.Y.Y.~.~.~.^.i.~ ! A M D d.q.j g V b S.2X2X2X2X2X2X2X2X2X2X2X2X2X2X2X2X2X2X2X2X2X",
"2X2X2X2X2X2X2X2X2X2X2X2X2X2X2X2X/ b v c c v 2 ; < f y.J.Y.~.~.~.b.j c A D M N i.k.~ d v V ! 1X2X2X2X2X2X2X2X2X2X2X2X2X2X2X2X2X2X2X2X2X",
"2X2X2X2X2X2X2X2X2X2X2X2X2X2X2X2Xw.C N v v x 2 , < Z d.I.P.Y.W.^.1.2 v P P V c 1.b.B.c g M V L.2X2X2X2X2X2X2X2X2X2X2X2X2X2X2X2X2X2X2X2X",
"2X2X2X2X2X2X2X2X2X2X2X2X2X2X2X2X,XC.8.F M c g 1 A N.f.E.I.Y.~.~.~ x v D U S v Z 9.x.^ d v A / 1X2X2X2X2X2X2X2X2X2X2X2X2X2X2X2X2X2X2X2X",
"2X2X2X2X2X2X2X2X2X2X2X2X2X2X2X2X2X2X2X*Xt.D j D XX'.k.~.Y.Y.Y.T.;.c v V S V c x c v v v b V K ;X2X2X2X2X2X2X2X2X2X2X2X2X2X2X2X2X2X2X2X",
"2X2X2X2X2X2X2X2X2X2X2X2X2X2X2X2X2X2X2X2X1X*X].;X2XXXH.E.T.~.R.~.Q v c c c g g 2 2 2 g v S P ( ,X2X2X2X2X2X2X2X2X2X2X2X2X2X2X2X2X2X2X2X",
"2X2X2X2X2X2X2X2X2X2X2X2X2X2X2X2X2X2X2X2X2X2X2X2X1X$XJ.~.T.~.~.~.Q v c x x g g g 2 d g c S I C.2X2X2X2X2X2X2X2X2X2X2X2X2X2X2X2X2X2X2X2X",
"2X2X2X2X2X2X2X2X2X2X2X2X2X2X2X2X2X2X2X2X2X2X2X2X2X*XH.~.Y.Y.T.T.^ v c c x N L H B N m V P M.2X2X2X2X2X2X2X2X2X2X2X2X2X2X2X2X2X2X2X2X2X",
"2X2X2X2X2X2X2X2X2X2X2X2X2X2X2X2X2X2X2X2X2X2X2X2X2X:XY.Y.R.R.R.R.V.F v N L +.-.@.<.b.J.!.1X2X2X2X2X2X2X2X2X2X2X2X2X2X2X2X2X2X2X2X2X2X2X",
"2X2X2X2X2X2X2X2X2X2X2X2X2X2X2X2X2X2X2X2X2X2X2X2X2X>XE.~.R.Y.R.R.Y.y.o...T @.-.o.-.s.c.W.1X2X2X2X2X2X2X2X2X2X2X2X2X2X2X2X2X2X2X2X2X2X2X",
"2X2X2X2X2X2X2X2X2X2X2X2X2X2X2X2X2X2X2X2X2X2X2X2X2X>XE.Y.R.T.R.~.~.c.2.=.X.X.@.*.-.s.l.Y.1X2X2X2X2X2X2X2X2X2X2X2X2X2X2X2X2X2X2X2X2X2X2X",
"2X2X2X2X2X2X2X2X2X2X2X2X2X2X2X2X2X2X2X2X2X2X2X2X2X>XE.W.R.R.R.~.~.Y.f.5.<.5.u.5.<.5.c.Y.1X2X2X2X2X2X2X2X2X2X2X2X2X2X2X2X2X2X2X2X2X2X2X",
"2X2X2X2X2X2X2X2X2X2X2X2X2X2X2X2X2X2X2X2X2X2X2X2X2X>XE.T.~.R.R.~.R./.Y.b.H.P.I.H.G.c.c.Y.,X2X2X2X2X2X2X2X2X2X2X2X2X2X2X2X2X2X2X2X2X2X2X",
"2X2X2X2X2X2X2X2X2X2X2X2X2X2X2X2X2X2X2X2X2X2X2X2X2X>XE.R.~.R.~.R./.(._.^.~.W.W./.~.~.I.~.,X2X2X2X2X2X2X2X2X2X2X2X2X2X2X2X2X2X2X2X2X2X2X",
"2X2X2X2X2X2X2X2X2X2X2X2X2X2X2X2X2X2X2X2X2X2X2X2X2X,XW.~.R.R././._._._.~.^.^.~._.T.~.Y._.,X2X2X2X2X2X2X2X2X2X2X2X2X2X2X2X2X2X2X2X2X2X2X",
"2X2X2X2X2X2X2X2X2X2X2X2X2X2X2X2X2X2X2X2X2X2X2X2X2X1X^.~./.R.R./._._._.~.^.~.~./.~._.^.{.,X2X2X2X2X2X2X2X2X2X2X2X2X2X2X2X2X2X2X2X2X2X2X",
"2X2X2X2X2X2X2X2X2X2X2X2X2X2X2X2X2X2X2X2X2X2X2X2X2X2X@X~.^.~.~.^.(._.^./._._./././._.~.{.1X2X2X2X2X2X2X2X2X2X2X2X2X2X2X2X2X2X2X2X2X2X2X",
"2X2X2X2X2X2X2X2X2X2X2X2X2X2X2X2X2X2X2X2X2X2X2X2X2X2X,X^.~.~.~.^._.^.~.^.^./.^.R.~.^.Y.}.1X2X2X2X2X2X2X2X2X2X2X2X2X2X2X2X2X2X2X2X2X2X2X",
"2X2X2X2X2X2X2X2X2X2X2X2X2X2X2X2X2X2X2X2X2X2X2X2X2X2X2X%XE.W.Y.W._._.~.~././.^.^./.^.~.OX1X2X2X2X2X2X2X2X2X2X2X2X2X2X2X2X2X2X2X2X2X2X2X",
"2X2X2X2X2X2X2X2X2X2X2X2X2X2X2X2X2X2X2X2X2X2X2X2X2X2X2X2X XW.E.Y.~._.~.~.^.(././._./.(.#X2X2X2X2X2X2X2X2X2X2X2X2X2X2X2X2X2X2X2X2X2X2X2X",
"2X2X2X2X2X2X2X2X2X2X2X2X2X2X2X2X2X2X2X2X2X2X2X2X2X2X2X2X1X^.E.J.E.W.~.^.^.T.~././.~.~.J.-X2X2X2X2X2X2X2X2X2X2X2X2X2X2X2X2X2X2X2X2X2X2X",
"2X2X2X2X2X2X2X2X2X2X2X2X2X2X2X2X2X2X2X2X2X2X2X2X2X2X2X2X2Xm.>.g.J.~.W.^.W.~.^./.~.I.G.G.).<X2X2X2X2X2X2X2X2X2X2X2X2X2X2X2X2X2X2X2X2X2X",
"2X2X2X2X2X2X2X2X2X2X2X2X2X2X2X2X2X2X2X2X2X2X2X2X2X2X2X2X2Xt.V V N 5.u.l.k.>.;.Q +.s.l.H.~.OX2X2X2X2X2X2X2X2X2X2X2X2X2X2X2X2X2X2X2X2X2X",
"2X2X2X2X2X2X2X2X2X2X2X2X2X2X2X2X2X2X2X2X2X2X2X2X2X2X2X2X2Xt.C M j 2.5.5.4.n v v I u.F.H.~.{.<X2X2X2X2X2X2X2X2X2X2X2X2X2X2X2X2X2X2X2X2X"
};
