/* XPM */
static char *ed79f3fcc6594ee2f36abd2905fe410fYERy4asmO90bT4vw[] = {
/* columns rows colors chars-per-pixel */
"67 67 214 2 ",
"   c #381702",
".  c #3B1A04",
"X  c #421C04",
"o  c #481F05",
"O  c #462106",
"+  c #4C2104",
"@  c #45240A",
"#  c #4B260A",
"$  c #4D2A0C",
"%  c #542605",
"&  c #562906",
"*  c #5B2B06",
"=  c #542609",
"-  c #532A0B",
";  c #5B2C0B",
":  c #57320D",
">  c #5D310E",
",  c #4D2C1C",
"<  c #512E1F",
"1  c #5C3311",
"2  c #5E3914",
"3  c #5A341E",
"4  c #602F09",
"5  c #64310B",
"6  c #6B360E",
"7  c #73380D",
"8  c #7D3D0E",
"9  c #633512",
"0  c #6A3512",
"q  c #643A14",
"w  c #6A3D16",
"e  c #753C14",
"r  c #7B3E13",
"t  c #593420",
"y  c #5D3A22",
"u  c #633D22",
"i  c #623F32",
"p  c #7F410F",
"a  c #6B421A",
"s  c #764216",
"d  c #654225",
"f  c #6B4526",
"g  c #69422B",
"h  c #6D4928",
"j  c #764626",
"k  c #734C2B",
"l  c #7A4C2E",
"z  c #715035",
"x  c #7E5133",
"c  c #77543E",
"v  c #745542",
"b  c #7C5A42",
"n  c #7E5845",
"m  c #844415",
"M  c #8B4515",
"N  c #8D4916",
"B  c #83461A",
"V  c #8D451A",
"C  c #854819",
"Z  c #8D4B1A",
"A  c #974F17",
"S  c #924D19",
"D  c #9B4E1D",
"F  c #8D501A",
"G  c #95521C",
"H  c #9C531C",
"J  c #A04F1C",
"K  c #A2551E",
"L  c #A55A1E",
"P  c #A95A1E",
"I  c #844922",
"U  c #855429",
"Y  c #975822",
"T  c #855634",
"R  c #935A36",
"E  c #9A5C3A",
"W  c #A55420",
"Q  c #AB5620",
"!  c #A35C22",
"~  c #AC5C21",
"^  c #B15F22",
"/  c #B95E25",
"(  c #A15E39",
")  c #966B3E",
"_  c #9B6B3C",
"`  c #AE6223",
"'  c #A5652B",
"]  c #A9652B",
"[  c #A96C2E",
"{  c #B36424",
"}  c #BB6326",
"|  c #BC6926",
" . c #B56329",
".. c #BC6528",
"X. c #B46A2B",
"o. c #BC6B2B",
"O. c #BD712E",
"+. c #A5653D",
"@. c #AC6639",
"#. c #A36A3B",
"$. c #AB6B3D",
"%. c #B86A35",
"&. c #B4693B",
"*. c #AC7337",
"=. c #B17432",
"-. c #B7713D",
";. c #C16426",
":. c #C46D26",
">. c #C96E26",
",. c #C2662B",
"<. c #C46B2D",
"1. c #C96E29",
"2. c #C87026",
"3. c #C3722E",
"4. c #CB722B",
"5. c #CE792E",
"6. c #D0772E",
"7. c #D17A2F",
"8. c #C66F35",
"9. c #CB6E31",
"0. c #C47532",
"q. c #CB7532",
"w. c #C67932",
"e. c #CC7B33",
"r. c #C7743F",
"t. c #CD7D3C",
"y. c #D07733",
"u. c #D27D32",
"i. c #865E44",
"p. c #8F6247",
"a. c #926547",
"s. c #996B47",
"d. c #8C6C58",
"f. c #AF6D44",
"g. c #A36D4D",
"h. c #B36C42",
"j. c #AA7049",
"k. c #B97245",
"l. c #B87546",
"z. c #AB7353",
"x. c #AC7559",
"c. c #B27856",
"v. c #B47A56",
"b. c #8C756B",
"n. c #8F796C",
"m. c #937A6C",
"M. c #AA7D63",
"N. c #C27C45",
"B. c #CD8235",
"V. c #C8843E",
"C. c #D48335",
"Z. c #D88637",
"A. c #D48439",
"S. c #D98539",
"D. c #D6893B",
"F. c #DB8C3D",
"G. c #DE913F",
"H. c #E0903F",
"J. c #AE8165",
"K. c #B58366",
"L. c #B88668",
"P. c #BC896A",
"I. c #AD8575",
"U. c #A68B7A",
"Y. c #AA8D7C",
"T. c #BE8B70",
"R. c #B4957F",
"E. c #CB854A",
"W. c #D28547",
"Q. c #DC8D41",
"!. c #D68B4E",
"~. c #DA8D4D",
"^. c #CE914B",
"/. c #DE9242",
"(. c #DA9649",
"). c #DF994B",
"_. c #D48752",
"`. c #D68A51",
"'. c #DC8D51",
"]. c #E08F40",
"[. c #E29543",
"{. c #E49A46",
"}. c #E39648",
"|. c #E59C49",
" X c #E99E4A",
".X c #E6A24C",
"XX c #EAA34D",
"oX c #EAA84F",
"OX c #E7A551",
"+X c #EAA651",
"@X c #EBA952",
"#X c #C38C6D",
"$X c #C6906E",
"%X c #9F8781",
"&X c #A99388",
"*X c #B49685",
"=X c #BC9783",
"-X c #BD9983",
";X c #A99890",
":X c #B7A298",
">X c #BFABA0",
",X c #C1A08F",
"<X c #D3C9C4",
"1X c #DDD5D1",
"2X c #E0D7D1",
"3X c #E6E3E2",
"4X c #EAE6E3",
"5X c #EEECEA",
"6X c #F2EEED",
"7X c #F2F0EE",
"8X c #F5F4F2",
"9X c #FDFDFB",
"0X c #FDFDFC",
"qX c white",
/* pixels */
"qXqXqXqXqXqXqXqXqXqXqXqXqXqXqXqXqXqXqXqXqXqXqXqXqXqXqXqXqXqXqXqXqXqXqXqXqXqXqXqXqXqXqXqXqXqXqXqXqXqXqXqXqXqXqXqXqXqXqXqXqXqXqXqXqXqXqX",
"qXqXqXqXqXqXqXqXqXqXqXqXqXqXqXqXqXqXqXqXqXqXqXqXqXqXqXqXqXqXqXqXqXqXqXqXqXqXqXqXqXqXqXqXqXqXqXqXqXqXqXqXqXqXqXqXqXqXqXqXqXqXqXqXqXqXqX",
"qXqXqXqXqXqXqXqXqXqXqXqXqXqXqXqXqXqXqXqXqXqXqXqXqXqXqXqXqXqXqXqXqXqXqXqXqXqXqXqXqXqXqXqXqXqXqXqXqXqXqXqXqXqXqXqXqXqXqXqXqXqXqXqXqXqXqX",
"qXqXqXqXqXqXqXqXqXqXqXqXqXqXqXqXqXqXqXqXqXqXqXqXqXqXqXqXqXqXqXqXqXqXqXqXqXqXqXqXqXqXqXqXqXqXqXqXqXqXqXqXqXqXqXqXqXqXqXqXqXqXqXqXqXqXqX",
"qXqXqXqXqXqXqXqXqXqXqXqXqXqXqXqXqXqXqXqXqXqXqXqXqXqXqXqXqXqXqXqXqXqXqXqXqXqXqXqXqXqXqXqXqXqXqXqXqXqXqXqXqXqXqXqXqXqXqXqXqXqXqXqXqXqXqX",
"qXqXqXqXqXqXqXqXqXqXqXqXqXqXqXqXqXqXqXqXqXqXqXqXqXqXqXqXqXqXqXqXqXqXqXqXqXqXqXqXqXqXqXqXqXqXqXqXqXqXqXqXqXqXqXqXqXqXqXqXqXqXqXqXqXqXqX",
"qXqXqXqXqXqXqXqXqXqXqXqXqXqXqXqXqXqXqXqXqXqXqXqXqXqXqXqXqXqXqXqXqXqXqXqXqXqXqXqXqXqXqXqXqXqXqXqXqXqXqXqXqXqXqXqXqXqXqXqXqXqXqXqXqXqXqX",
"qXqXqXqXqXqXqXqXqXqXqXqXqXqXqXqXqXqXqXqXqXqXqXqXqXqXqXqXqXqXqXqXqXqXqXqXqXqXqXqXqXqXqXqXqXqXqXqXqXqXqXqXqXqXqXqXqXqXqXqXqXqXqXqXqXqXqX",
"qXqXqXqXqXqXqXqXqXqXqXqXqXqXqXqXqXqXqXqXqXqXqXqXqXqXqXqXqXqXqXqXqXqXqXqXqXqXqXqXqXqXqXqXqXqXqXqXqXqXqXqXqXqXqXqXqXqXqXqXqXqXqXqXqXqXqX",
"qXqXqXqXqXqXqXqXqXqXqXqXqXqXqXqXqXqXqXqXqXqXqXqXqXqXqXqXqXqXqXqXqXqXqXqXqXqXqXqXqXqXqXqXqXqXqXqXqXqXqXqXqXqXqXqXqXqXqXqXqXqXqXqXqXqXqX",
"qXqXqXqXqXqXqXqXqXqXqXqXqXqXqXqXqXqXqXqXqXqXqXqXqXqXqXqXqXqXqXqXqXqXqXqXqXqXqXqXqXqXqXqXqXqXqXqXqXqXqXqXqXqXqXqXqXqXqXqXqXqXqXqXqXqXqX",
"qXqXqXqXqXqXqXqXqXqXqXqXqXqXqXqXqXqXqXqXqXqXqXqXqXqXqXqXqXqXqXqXqXqXqXqXqXqXqXqXqXqXqXqXqXqXqXqXqXqXqXqXqXqXqXqXqXqXqXqXqXqXqXqXqXqXqX",
"qXqXqXqXqXqXqXqXqXqXqXqXqX9X5X:X=X-X=X-X=X-X-X-X=X-X-X=X:X6X9XqXqXqXqXqX9X8X>X*XR.*X*XR.Y.Y.Y.U.U.U.U.&X3XqXqXqXqXqXqXqXqXqXqXqXqXqXqX",
"qXqXqXqXqXqXqXqXqXqXqXqX9X2Xj.!.'.'._.W.'.'.~.~.~.~.~.!.W.z.4XqXqXqXqX9X6Xx.E.E.E.l.l.-.$.#.#._ _ _ s.s.T <XqXqXqXqXqXqXqXqXqXqXqXqXqX",
"qXqXqXqXqXqXqXqXqXqXqXqXqXT.q.!.`.E.@.!.!.!.!.`.`.!.`._.W.8.I.qXqXqXqX9X,X;.r.N.l.k.-.$.$.j.#.j._ _ ) ) l d.9XqXqXqXqXqXqXqXqXqXqXqXqX",
"qXqXqXqXqXqXqXqXqXqXqXqXqXk.9.q.Q.( ~.Q.D.A.u.e.q.q.q.t.,.,.v.9XqXqXqXqXT.;.,.E.(.).}.).(.N.(.@.V.^.*.j a x 7XqXqXqXqXqXqXqXqXqXqXqXqX",
"qXqXqXqXqXqXqXqXqXqXqXqXqXh.,.4.S.&.Q.F.F.[.[.{.|.XXXX X1.<.v.9XqXqXqXqX#X9.4. XXXXX+XOX{.0.5. ./.XX|.U a k 7XqXqXqXqXqXqXqXqXqXqXqXqX",
"qXqXqXqXqXqXqXqXqXqXqXqXqXk.9.F.XX^.@X@X@X@X@X@X@X@X@XXXe.o.v.9XqXqXqXqX$X0.C.XX|.{.D.e.C.A.|.(.).@X|.' 9 h 7XqXqXqXqXqXqXqXqXqXqXqXqX",
"qXqXqXqXqXqXqXqXqXqXqXqXqXk.1.].XX(.@X@X@X@X@X@X@X+XXXXXe...c.9XqXqXqXqX$X9.A.G.C.F.}.OX+X@X@X|.(.D.4.! w k 7XqXqXqXqXqXqXqXqXqXqXqXqX",
"qXqXqXqXqXqXqXqXqXqXqXqXqXh.;.5.A.A.D.D.D.D.A.A.A.u.5.5.|  .c.9XqXqXqXqX$X<.A.XX@X@X@X@X@XXX/.B.e.F.|.=.w k 7XqXqXqXqXqXqXqXqXqXqXqXqX",
"qXqXqXqXqXqXqXqXqXqXqXqXqXh.<.A.[.{.{.{.{.|.|.|.|.|. X Xw.{ z.9XqXqXqXqX#X9.A.XX@X+XOX).D.C.F.}. XXXXX=.q h 7XqXqXqXqXqXqXqXqXqXqXqXqX",
"qXqXqXqXqXqXqXqXqXqXqXqXqXk.1.Q.XX+X+X+X+X+XXX X X X X X0.~ z.9XqXqXqXqX#X<.A.|./.A.u.D.}.+XXXXX X[.u.Y 9 k 7XqXqXqXqXqXqXqXqXqXqXqXqX",
"qXqXqXqXqXqXqXqXqXqXqXqXqXk.<.Q.XX+X@X@XoX.XXXXX XXX X X3.~ j.9XqXqXqXqX#X..;.q./.|.OX+XXX X[.u.4.>.y.[ q k 7XqXqXqXqXqXqXqXqXqXqXqXqX",
"qXqXqXqXqXqXqXqXqXqXqXqXqXh.} q.F.Q.Q.F.S.S.F. X X XC.7.{ K g.9XqXqXqXqX#X,.u.XX@X+X|.F.u.4.>.6.S.{. X=.q h 7XqXqXqXqXqXqXqXqXqXqXqXqX",
"qXqXqXqXqXqXqXqXqXqXqXqXqXh...D..X.X.X{.{.{.|. X X.X|. Xo.K g.9XqXqXqXqX#X<.y.F.D.e.5.4.6.A.{. X|. X X=.q h 7XqXqXqXqXqXqXqXqXqXqXqXqX",
"qXqXqXqXqXqXqXqXqXqXqXqXqXf...D.XXoXXX|. X X X X|.[.F.A.{ H g.9XqXqXqXqXP.} ;.4.A./.[.|. X X|.|. X|. X=.2 h 7XqXqXqXqXqXqXqXqXqXqXqXqX",
"qXqXqXqXqXqXqXqXqXqXqXqXqX$.^ q.F.F.A.u.u.5.5.4.1.>.>.4.~ D s.9XqXqXqXqX#X,.e..X+X+X X|.|. X|. X X X X[ 2 f 7XqXqXqXqXqXqXqXqXqXqXqXqX",
"qXqXqXqXqXqXqXqXqXqXqXqXqX+.P | u.C.5.5.y.u.C.A.F.[.{.|.X.S s.9XqXqXqXqX#X,.e.XX+XXX|.|.{.{.{.{.|.|.|.[ 1 f 7XqXqXqXqXqXqXqXqXqXqXqXqX",
"qXqXqXqXqXqXqXqXqXqXqXqXqX+.~ A.XXXX|.|.|.|.|.|.|.{.{.{.` N s.9XqXqXqXqX#X,.4.A.A.u.4.4.4.4.4.4.4.5.F.[ 1 d 7XqXqXqXqXqXqXqXqXqXqXqXqX",
"qXqXqXqXqXqXqXqXqXqXqXqXqX+.~ A.XXXX|.|.|.|.|.{./.F.C.5.L N s.9XqXqXqXqXP.} 3.F.[.{.[.{.{.{.{.[./.F.7.H 1 d 7XqXqXqXqXqXqXqXqXqXqXqXqX",
"qXqXqXqXqXqXqXqXqXqXqXqXqX+.K e.{.(.F.S.u.5.4.4.5.u.C.F.! m a.9XqXqXqXqXP...e.|.XX|.{.[./.[.{.{.{.[.[.' 1 d 7XqXqXqXqXqXqXqXqXqXqXqXqX",
"qXqXqXqXqXqXqXqXqXqXqXqXqXE K | u.C.u.C.F.Q.[.[.[.[.[.[.L r p.9XqXqXqXqXP.} q.|.|.F.C.C.F.Z.C.[.[.[./.' 9 d 7XqXqXqXqXqXqXqXqXqXqXqXqX",
"qXqXqXqXqXqXqXqXqXqXqXqXqXE G w.|. X[.{.[.[.[.[.[.[.[.[.L r p.9XqXqXqXqXP.} 3.F.{.[.{.[.[.[.G.C.[.[.G.' 9 u 7XqXqXqXqXqXqXqXqXqXqXqXqX",
"qXqXqXqXqXqXqXqXqXqXqXqXqXR S w.|.|.[.[.[.{.[.[.F.A.C.C.H r i.9XqXqXqXqXP. .0.{..X[.[.[.[.[./.u.[./.F.' 9 u 7XqXqXqXqXqXqXqXqXqXqXqXqX",
"qXqXqXqXqXqXqXqXqXqXqXqXqXR N 0.[./.F.S.S.C.C.C.S.F.[.[.G 7 i.9XqXqXqXqXP.{ 0.{.|.[.[.[.[.G.e.F./.F.F.! 1 u 7XqXqXqXqXqXqXqXqXqXqXqXqX",
"qXqXqXqXqXqXqXqXqXqXqXqXqXR N O.G./.F././.[././.F.S.u.5.H m a.9XqXqXqXqXP.{ 0.[.|.[./.[.S.y.F./.F.F.e.G $ y 7XqXqXqXqXqXqXqXqXqXqXqXqX",
"qXqXqXqXqXqXqXqXqXqXqXqXqXT m 0.{.[.[.[.G.H.u.4.>.>.>.>.A r i.9XqXqXqXqXL.^ 0.[.|.[.A.u.A.G.G.F.D.q.:.Y $ y 7XqXqXqXqXqXqXqXqXqXqXqXqX",
"qXqXqXqXqXqXqXqXqXqXqXqXqXT p O.{.[.G.G.F.F.q.5.y.u.A.F.F 5 b 9XqXqXqXqXL.~ 3.F.F.5.Z.Q.F.F.F.A.3.:.B.Y # y 7XqXqXqXqXqXqXqXqXqXqXqXqX",
"qXqXqXqXqXqXqXqXqXqXqXqXqXU 8 O.[.F.F.F.F.F.F.F.F.F.F.F.Z 5 i.9XqXqXqXqXL. .o.C.[.F.F.F.F.F.A.:.3.B.B.Y # 3 8XqXqXqXqXqXqXqXqXqXqXqXqX",
"qXqXqXqXqXqXqXqXqXqXqXqXqXT p { C.u.u.C.C.C.u.u.6.5.5.y.Z 5 c 9XqXqXqXqXL.P o.F.[.F.F.F.A.&.] %.0.w.w.Y @ t 7XqXqXqXqXqXqXqXqXqXqXqXqX",
"qXqXqXqXqXqXqXqXqXqXqXqXqXl 7 X.F.S.S.C.C.C.C.C.A.A.Z.Z.C & c 9XqXqXqXqXL.~ o.F.Q.W.t.0.-.w.e.e.q.w.w.Y O 3 7XqXqXqXqXqXqXqXqXqXqXqXqX",
"qXqXqXqXqXqXqXqXqXqXqXqXqXl 6 X.F.F.F.S.Z.Z.A.A.A.A.C.A.m % c 9XqXqXqXqXK.Q ..A.u.4.4.5.5.e.e.w.0.0.O.G 1 f 7XqXqXqXqXqXqXqXqXqXqXqXqX",
"qXqXqXqXqXqXqXqXqXqXqXqXqXx e { C.S.S.A.A.A.A.A.C.C.C.C.C 5 b 9XqXqXqXqXL./ ;.1.6.C.B.q.w.w.0.3...{ { Z - y 7XqXqXqXqXqXqXqXqXqXqXqXqX",
"qXqXqXqXqXqXqXqXqXqXqXqXqXl 7 ~ 4.1.1.4.4.4.4.4.4.4.>.>.M 5 n 9XqXqXqXqXL.Q ..A.A.e.w.0.3.o.{ { ^ ` { B . < 7XqXqXqXqXqXqXqXqXqXqXqXqX",
"qXqXqXqXqXqXqXqXqXqXqXqXqXh 4 ] C.C.u.u.y.5.5.5.6.u.6.6.e O z 9XqXqXqXqXJ.W  .C.0.3.o.} { { { { { { { B o y 7XqXqXqXqXqXqXqXqXqXqXqXqX",
"qXqXqXqXqXqXqXqXqXqXqXqXqXl 5 ` u.C.u.u.u.u.y.6.6.6.6.6.e o c 9XqXqXqXqXK.Q ^ | { { { { { { { { ` ` ~ M ; u 7XqXqXqXqXqXqXqXqXqXqXqXqX",
"qXqXqXqXqXqXqXqXqXqXqXqXqXx e P 1.4.4.4.4.4.4.4.4.4.4.4.C 9 i.9XqXqXqXqXL.~ ~ { { { { { { { ` P P P P M # t 6XqXqXqXqXqXqXqXqXqXqXqXqX",
"qXqXqXqXqXqXqXqXqXqXqXqXqXg * ! 4.4.4.4.>.>.>.>.1.>.>.1.B ; v 9XqXqXqXqXJ.A K X.X.{ { ` ~ P P P L P ~ s   , 7XqXqXqXqXqXqXqXqXqXqXqXqX",
"qXqXqXqXqXqXqXqXqXqXqXqXqXd = E &.&.%.<.4.4.4.4.4.1.1.2.0 . z qXqXqXqX9XM.V D { ` P P P P P P P P ~ L e   , 6XqXqXqXqXqXqXqXqXqXqXqXqX",
"qXqXqXqXqXqXqXqXqXqXqXqXqXg j j 5.4.4.4.4.>.1.1.>.1.;...- = v 9XqXqXqXqXM.D J P ~ P P P P P P P L L ! -   , 7XqXqXqXqXqXqXqXqXqXqXqXqX",
"qXqXqXqXqXqXqXqXqXqXqXqXqXT I e C ~ ` ` ` ~ P ! K H S 6 > ; b 9XqXqXqXqXK.K D M S G G A A S S S N M 5 . X u 6XqXqXqXqXqXqXqXqXqXqXqXqX",
"qXqXqXqXqXqXqXqXqXqXqXqX9Xx s 0 9 9 9 9 1 > ; ; - - - # - # v 9XqXqXqXqXM.M e 0 9 5 5 * * & % + O O O X ; j 6XqXqXqXqXqXqXqXqXqXqXqXqX",
"qXqXqXqXqXqXqXqXqXqXqXqXqXd.; : : - - - - # # O O O X X X X b.qXqXqXqXqX*Xr 6 6 6 5 4 * & & % + + o X X 5 n 9XqXqXqXqXqXqXqXqXqXqXqXqX",
"qXqXqXqXqXqXqXqXqXqXqXqXqX1Xy - - $ # # O O o X X X X X X i 4XqXqXqXqXqX5Xn 6 0 5 5 * * & ; * * = o X X 3 <XqXqXqXqXqXqXqXqXqXqXqXqXqX",
"qXqXqXqXqXqXqXqXqXqXqXqXqXqX5X&Xm.b.b.b.b.b.b.b.b.b.b.b.;X8XqXqXqXqXqXqXqX8X:Xm.m.m.m.n.n.b.b.b.b.b.b.%X3XqXqXqXqXqXqXqXqXqXqXqXqXqXqX",
"qXqXqXqXqXqXqXqXqXqXqXqXqXqXqXqXqXqXqXqXqXqXqXqXqXqXqXqXqX9XqXqXqXqXqXqXqX9X9XqXqXqXqXqXqXqXqXqXqXqXqXqXqXqXqXqXqXqXqXqXqXqXqXqXqXqXqX",
"qXqXqXqXqXqXqXqXqXqXqXqXqXqXqXqXqXqXqXqXqXqXqXqXqXqXqXqXqXqXqXqXqXqXqXqXqXqXqXqXqXqXqXqXqXqXqXqXqXqXqXqXqXqXqXqXqXqXqXqXqXqXqXqXqXqXqX",
"qXqXqXqXqXqXqXqXqXqXqXqXqXqXqXqXqXqXqXqXqXqXqXqXqXqXqXqXqXqXqXqXqXqXqXqXqXqXqXqXqXqXqXqXqXqXqXqXqXqXqXqXqXqXqXqXqXqXqXqXqXqXqXqXqXqXqX",
"qXqXqXqXqXqXqXqXqXqXqXqXqXqXqXqXqXqXqXqXqXqXqXqXqXqXqXqXqXqXqXqXqXqXqXqXqXqXqXqXqXqXqXqXqXqXqXqXqXqXqXqXqXqXqXqXqXqXqXqXqXqXqXqXqXqXqX",
"qXqXqXqXqXqXqXqXqXqXqXqXqXqXqXqXqXqXqXqXqXqXqXqXqXqXqXqXqXqXqXqXqXqXqXqXqXqXqXqXqXqXqXqXqXqXqXqXqXqXqXqXqXqXqXqXqXqXqXqXqXqXqXqXqXqXqX",
"qXqXqXqXqXqXqXqXqXqXqXqXqXqXqXqXqXqXqXqXqXqXqXqXqXqXqXqXqXqXqXqXqXqXqXqXqXqXqXqXqXqXqXqXqXqXqXqXqXqXqXqXqXqXqXqXqXqXqXqXqXqXqXqXqXqXqX",
"qXqXqXqXqXqXqXqXqXqXqXqXqXqXqXqXqXqXqXqXqXqXqXqXqXqXqXqXqXqXqXqXqXqXqXqXqXqXqXqXqXqXqXqXqXqXqXqXqXqXqXqXqXqXqXqXqXqXqXqXqXqXqXqXqXqXqX",
"qXqXqXqXqXqXqXqXqXqXqXqXqXqXqXqXqXqXqXqXqXqXqXqXqXqXqXqXqXqXqXqXqXqXqXqXqXqXqXqXqXqXqXqXqXqXqXqXqXqXqXqXqXqXqXqXqXqXqXqXqXqXqXqXqXqXqX",
"qXqXqXqXqXqXqXqXqXqXqXqXqXqXqXqXqXqXqXqXqXqXqXqXqXqXqXqXqXqXqXqXqXqXqXqXqXqXqXqXqXqXqXqXqXqXqXqXqXqXqXqXqXqXqXqXqXqXqXqXqXqXqXqXqXqXqX",
"qXqXqXqXqXqXqXqXqXqXqXqXqXqXqXqXqXqXqXqXqXqXqXqXqXqXqXqXqXqXqXqXqXqXqXqXqXqXqXqXqXqXqXqXqXqXqXqXqXqXqXqXqXqXqXqXqXqXqXqXqXqXqXqXqXqXqX",
"qXqXqXqXqXqXqXqXqXqXqXqXqXqXqXqXqXqXqXqXqXqXqXqXqXqXqXqXqXqXqXqXqXqXqXqXqXqXqXqXqXqXqXqXqXqXqXqXqXqXqXqXqXqXqXqXqXqXqXqXqXqXqXqXqXqXqX",
"qXqXqXqXqXqXqXqXqXqXqXqXqXqXqXqXqXqXqXqXqXqXqXqXqXqXqXqXqXqXqXqXqXqXqXqXqXqXqXqXqXqXqXqXqXqXqXqXqXqXqXqXqXqXqXqXqXqXqXqXqXqXqXqXqXqXqX"
};
